<?xml version="1.0" encoding="UTF-8" standalone="no"?>
<!DOCTYPE svg PUBLIC "-//W3C//DTD SVG 1.1//EN" "http://www.w3.org/Graphics/SVG/1.1/DTD/svg11.dtd">
<svg width="100%" height="100%" viewBox="0 0 45 45" version="1.1" xmlns="http://www.w3.org/2000/svg" xmlns:xlink="http://www.w3.org/1999/xlink" xml:space="preserve" xmlns:serif="http://www.serif.com/" style="fill-rule:evenodd;clip-rule:evenodd;stroke-linecap:round;stroke-linejoin:round;">
    <g transform="matrix(0.867628,0,0,0.867628,0.275807,0.412781)">
        <g>
            <g transform="matrix(0.341155,0,0,0.339543,0.0062601,15.7695)">
                <path d="M125.912,52.704L125.699,50.455L125.364,46.068L124.879,41.644L124.309,37.186L123.758,32.71L123.388,29.338L123.172,27.08L122.987,24.811L122.839,22.53L122.732,20.234L122.671,17.923L122.66,16.761C122.659,16.676 122.414,16.469 122.112,16.298C121.81,16.127 121.565,16.058 121.566,16.143L121.568,17.302L121.611,19.605L121.702,21.892L121.834,24.166L122.003,26.428L122.203,28.679L122.552,32.04L123.078,36.503L123.648,40.962L124.28,45.465L124.956,50.041L125.182,52.297C125.188,52.357 125.356,52.497 125.558,52.609C125.759,52.721 125.918,52.764 125.912,52.704" style="fill:rgb(114,114,113);fill-rule:nonzero;"/>
            </g>
            <g transform="matrix(0.341155,0,0,0.339543,0.0062601,4.49739)">
                <path d="M2.385,49.534L3.286,49.941L5.086,50.691L6.883,51.359L8.676,51.947L10.467,52.457L12.254,52.892L14.039,53.255L15.821,53.548L17.6,53.773L19.376,53.933L21.149,54.03L22.921,54.067L24.689,54.046L26.456,53.97L28.22,53.841L29.981,53.661L31.741,53.434L33.499,53.16L35.256,52.842L37.011,52.484L39.638,51.876L43.135,50.947L46.629,49.896L50.118,48.744L53.602,47.513L57.08,46.221L62.29,44.212L69.225,41.502L74.417,39.535L77.875,38.289L81.333,37.119L84.811,36.021L88.292,35.034L90.906,34.379L92.65,33.987L94.398,33.633L96.147,33.322L97.898,33.055L99.652,32.834L101.407,32.662L103.165,32.541L104.926,32.474L106.691,32.461L108.458,32.507L110.229,32.614L112.002,32.784L113.779,33.02L114.667,33.164L114.665,33.163L115.296,33.276L116.51,33.522L117.665,33.796L118.764,34.097L119.808,34.423L120.797,34.773L121.732,35.148L122.613,35.547L123.442,35.968L124.219,36.412L124.944,36.877L125.62,37.362L126.246,37.866L126.824,38.389L127.355,38.93L127.838,39.488L128.275,40.063L128.667,40.652L129.015,41.257L129.32,41.875L129.581,42.506L129.801,43.148L129.981,43.802L130.12,44.466L130.22,45.139L130.282,45.821L130.306,46.511L130.294,47.208L130.246,47.91L130.163,48.618L129.974,49.691L129.608,51.13L129.12,52.571L128.516,54.009L127.805,55.435L126.996,56.841L126.098,58.22L125.118,59.565L124.066,60.869L122.945,62.132L121.758,63.353L120.504,64.535L119.181,65.676L117.79,66.775L116.334,67.825L114.822,68.817L113.26,69.741L112.473,70.17C112.237,70.297 111.909,70.611 111.741,70.871C111.572,71.132 111.627,71.239 111.863,71.112L112.703,70.66L114.352,69.697L115.976,68.641L117.573,67.497L119.136,66.268L120.655,64.961L122.118,63.585L123.512,62.154L124.821,60.681L126.034,59.18L127.145,57.662L128.146,56.134L129.035,54.602L129.806,53.07L130.455,51.544L130.979,50.028L131.37,48.53L131.574,47.42L131.667,46.685L131.723,45.957L131.743,45.237L131.725,44.526L131.669,43.823L131.574,43.13L131.439,42.448L131.263,41.777L131.045,41.118L130.785,40.473L130.482,39.84L130.136,39.223L129.744,38.62L129.308,38.033L128.825,37.462L128.296,36.909L127.719,36.375L127.093,35.859L126.418,35.362L125.693,34.886L124.917,34.432L124.09,33.999L123.209,33.589L122.276,33.203L121.289,32.841L120.245,32.505L119.146,32.195L117.991,31.912L116.778,31.657L116.152,31.54C116.151,31.54 116.15,31.54 116.15,31.539L115.26,31.389L113.483,31.14L111.71,30.957L109.938,30.838L108.168,30.781L106.4,30.782L104.633,30.842L102.867,30.957L101.102,31.124L99.34,31.341L97.578,31.604L95.818,31.912L94.06,32.262L92.301,32.652L89.665,33.307L86.156,34.299L82.649,35.408L79.13,36.635L75.614,37.937L70.348,39.989L63.338,42.805L58.079,44.895L54.57,46.242L51.057,47.528L47.541,48.735L44.016,49.844L40.482,50.837L37.825,51.492L36.052,51.882L34.276,52.231L32.497,52.538L30.715,52.801L28.929,53.015L27.141,53.18L25.349,53.292L23.554,53.349L21.755,53.349L19.953,53.29L18.146,53.168L16.336,52.982L14.521,52.729L12.702,52.407L10.879,52.013L9.051,51.546L7.219,51.002L5.381,50.379L3.538,49.675L2.615,49.292C2.592,49.282 2.522,49.328 2.458,49.395C2.395,49.462 2.362,49.524 2.385,49.534" style="fill:rgb(114,114,113);fill-rule:nonzero;"/>
            </g>
            <g transform="matrix(0.341155,0,0,0.339543,0.0062601,1.46969)">
                <path d="M9.317,27.738L9.959,28.378L11.275,29.59L12.634,30.713L14.033,31.75L15.471,32.704L16.947,33.578L18.46,34.374L20.009,35.095L21.593,35.744L23.21,36.323L24.86,36.836L26.54,37.285L28.251,37.674L29.991,38.003L31.758,38.276L33.553,38.496L35.373,38.666L37.217,38.789L39.084,38.866L40.973,38.902L42.884,38.897L44.816,38.855L46.766,38.78L48.733,38.673L50.717,38.537L52.716,38.376L55.741,38.091L59.819,37.643L63.94,37.14L68.092,36.603L72.267,36.055L76.459,35.514L80.657,35.004L84.852,34.546L89.033,34.163L93.195,33.875L96.297,33.734L98.354,33.681L100.402,33.664L102.442,33.681L104.477,33.732L106.498,33.827L108.505,33.968L110.497,34.16L112.474,34.402L114.433,34.698L116.373,35.053L118.294,35.468L120.193,35.946L122.07,36.49L123.924,37.103L125.754,37.787L127.558,38.544L129.338,39.377L130.217,39.822L130.215,39.822L130.78,40.126L131.913,40.798L133.048,41.551L134.179,42.382L135.298,43.284L136.399,44.252L137.474,45.281L138.516,46.365L139.518,47.499L140.473,48.678L141.375,49.895L142.217,51.144L142.99,52.422L143.689,53.723L144.305,55.041L144.832,56.37L145.263,57.706L145.591,59.041L145.809,60.372L145.91,61.69L145.906,62.666L145.863,63.307L145.788,63.943L145.679,64.571L145.537,65.189L145.362,65.796L145.153,66.388L144.91,66.965L144.637,67.521L144.335,68.053L144.009,68.556L143.664,69.024L143.306,69.455L142.931,69.856L142.529,70.243L142.08,70.631L141.568,71.033L140.985,71.448L140.332,71.87L139.611,72.292L138.827,72.708L137.983,73.114L137.079,73.507L136.118,73.884L135.62,74.065L135.628,74.062L134.03,74.611L130.856,75.622L127.709,76.558L124.601,77.465L121.547,78.386L119.3,79.113L117.826,79.626L116.374,80.167L114.945,80.742L113.539,81.358L112.159,82.021L111.471,82.376C111.242,82.493 110.913,82.803 110.735,83.067C110.558,83.332 110.6,83.452 110.829,83.335L111.473,83.007L112.802,82.379L114.165,81.793L115.558,81.244L116.979,80.726L118.424,80.236L120.637,79.539L123.657,78.654L126.742,77.78L129.878,76.872L133.046,75.888L134.631,75.355C134.634,75.354 134.637,75.353 134.639,75.352L135.16,75.167L136.158,74.782L137.11,74.373L138.019,73.94L138.889,73.48L139.724,72.992L140.531,72.469L141.313,71.908L142.073,71.302L142.806,70.654L143.496,69.975L144.127,69.284L144.687,68.597L145.177,67.923L145.603,67.261L145.974,66.607L146.294,65.957L146.568,65.307L146.8,64.657L146.993,64.004L147.147,63.349L147.264,62.689L147.347,62.026L147.395,61.358L147.407,60.35L147.313,59.001L147.102,57.644L146.781,56.285L146.356,54.929L145.836,53.58L145.227,52.244L144.535,50.926L143.769,49.632L142.934,48.366L142.038,47.135L141.087,45.943L140.089,44.797L139.051,43.7L137.98,42.659L136.883,41.679L135.766,40.765L134.637,39.922L133.503,39.157L132.371,38.474L131.809,38.166C131.808,38.166 131.808,38.165 131.807,38.165L130.929,37.712L129.152,36.866L127.347,36.099L125.516,35.406L123.66,34.785L121.781,34.232L119.88,33.746L117.957,33.323L116.015,32.961L114.053,32.657L112.074,32.408L110.076,32.214L108.063,32.07L106.035,31.973L103.994,31.92L101.933,31.917L99.858,31.958L97.771,32.036L94.627,32.214L90.409,32.556L86.172,32.995L81.925,33.508L77.676,34.074L73.435,34.673L69.207,35.284L65.005,35.882L60.837,36.446L56.711,36.955L53.649,37.289L51.625,37.483L49.617,37.651L47.625,37.79L45.652,37.898L43.697,37.971L41.762,38.008L39.848,38.006L37.955,37.961L36.086,37.871L34.241,37.734L32.422,37.546L30.629,37.305L28.864,37.008L27.126,36.653L25.419,36.237L23.742,35.757L22.098,35.211L20.486,34.595L18.908,33.907L17.365,33.145L15.858,32.306L14.389,31.386L12.958,30.384L11.566,29.297L10.214,28.122L9.553,27.501C9.536,27.485 9.47,27.525 9.404,27.59C9.339,27.656 9.3,27.722 9.317,27.738" style="fill:rgb(114,114,113);fill-rule:nonzero;"/>
            </g>
            <g transform="matrix(0.341155,0,0,0.339543,0.0062601,29.2213)">
                <path d="M21.244,19.356L21.783,19.158L22.871,18.784L24.543,18.257L26.834,17.593L29.174,16.939L31.54,16.258L33.912,15.509L35.692,14.876L36.882,14.406L38.063,13.894L39.245,13.328L39.864,13.007C40.654,12.566 41.621,11.584 42.024,10.815C42.427,10.046 42.113,9.78 41.323,10.222L40.816,10.53L39.704,11.16L38.545,11.764L37.357,12.34L35.51,13.165L32.977,14.198L30.412,15.176L27.852,16.132L25.333,17.098L23.492,17.848L22.296,18.368L21.713,18.634C21.546,18.703 21.306,18.92 21.177,19.119C21.048,19.319 21.078,19.424 21.244,19.356" style="fill:rgb(114,114,113);fill-rule:nonzero;"/>
            </g>
            <g transform="matrix(0.341155,0,0,0.339543,0.0062601,4.52834)">
                <path d="M42.141,83.646L42.819,81.645L44.237,77.613L45.731,73.541L47.295,69.434L48.918,65.299L50.594,61.145L52.313,56.98L54.067,52.813L56.745,46.574L59.453,40.376L61.261,36.282L63.062,32.225L64.846,28.213L66.606,24.257L68.333,20.363L69.182,18.441C69.621,17.407 68.913,16.879 67.601,17.263C66.289,17.647 64.871,18.796 64.432,19.83L63.664,21.723L62.096,25.567L60.497,29.477L58.874,33.444L57.235,37.46L55.588,41.518L53.124,47.661L50.691,53.844L49.099,57.977L47.541,62.109L46.026,66.23L44.562,70.333L43.157,74.409L41.819,78.448L40.558,82.442L39.96,84.415C39.817,84.86 40.189,85.049 40.791,84.837C41.394,84.625 41.998,84.091 42.141,83.646" style="fill:rgb(114,114,113);fill-rule:nonzero;"/>
            </g>
            <g transform="matrix(0.341155,0,0,0.339543,0.0062601,-1.27097)">
                <path d="M66.719,37.522L67.764,40.337L69.848,46.021L71.89,51.767L73.374,56.112L74.332,59.023L75.26,61.944L76.154,64.874L77.009,67.811L77.821,70.754L78.585,73.702L79.297,76.654L79.953,79.608L80.548,82.562L80.821,84.039C80.875,84.323 81.596,83.914 82.433,83.125C83.27,82.336 83.905,81.466 83.852,81.182L83.568,79.709L82.954,76.767L82.278,73.825L81.546,70.887L80.762,67.953L79.93,65.024L79.055,62.102L78.142,59.187L77.194,56.282L76.216,53.387L74.703,49.066L72.623,43.354L70.502,37.705L69.437,34.908C69.354,34.686 68.677,35.091 67.926,35.813C67.176,36.535 66.635,37.3 66.719,37.522" style="fill:rgb(114,114,113);fill-rule:nonzero;"/>
            </g>
            <g transform="matrix(0.341155,0,0,0.339543,0.0062601,28.6683)">
                <path d="M52.087,17.559L54.768,17.181L58.805,16.564L61.509,16.119L64.163,15.629L66.773,15.094L69.36,14.522L71.936,13.913L73.221,13.594C73.439,13.54 73.386,13.433 73.102,13.355C72.818,13.277 72.411,13.257 72.192,13.311L70.909,13.623L68.334,14.222L65.753,14.786L63.174,15.32L60.624,15.833L58.109,16.328L54.288,17.011L51.715,17.428C51.605,17.445 51.598,17.488 51.701,17.524C51.804,17.56 51.977,17.576 52.087,17.559" style="fill:rgb(114,114,113);fill-rule:nonzero;"/>
            </g>
            <g transform="matrix(0.341155,0,0,0.339543,0.0062601,14.2016)">
                <path d="M73.409,56.098L73.774,54.879L74.562,52.449L75.412,50.029L76.32,47.618L77.769,44.016L79.823,39.234L81.83,34.453L83.781,29.668L85.173,26.072L86.062,23.67L86.909,21.262L87.706,18.848L88.083,17.638C88.121,17.511 87.734,17.366 87.218,17.314C86.702,17.262 86.253,17.323 86.214,17.45L85.86,18.66L85.104,21.076L84.294,23.485L83.438,25.889L82.084,29.487L80.217,34.28L78.348,39.077L76.598,43.893L75.32,47.514L74.5,49.935L73.715,52.363L72.975,54.798L72.621,56.019C72.605,56.073 72.769,56.134 72.986,56.156C73.204,56.177 73.393,56.152 73.409,56.098" style="fill:rgb(114,114,113);fill-rule:nonzero;"/>
            </g>
            <g transform="matrix(0.341155,0,0,0.339543,0.0062601,9.80015)">
                <path d="M86.456,30.43L86.962,31.97L87.905,35.09L88.737,38.251L89.471,41.441L90.22,44.653L90.955,47.872L91.679,51.085L92.161,53.479L92.455,55.065L92.592,55.854C92.611,56.006 93.111,56.165 93.707,56.209C94.304,56.253 94.772,56.165 94.752,56.013L94.685,55.227L94.52,53.647L94.196,51.26L93.651,48.054L92.931,44.832L92.078,41.61L91.103,38.402L90.156,35.232L89.291,32.116L88.894,30.583C88.843,30.409 88.255,30.234 87.582,30.192C86.909,30.15 86.405,30.256 86.456,30.43" style="fill:rgb(114,114,113);fill-rule:nonzero;"/>
            </g>
            <g transform="matrix(0.341155,0,0,0.339543,0.0062601,33.3136)">
                <path d="M139.397,16.473L138.927,16.042L137.991,15.146L137.062,14.208L136.139,13.234L134.768,11.719L132.968,9.629L131.2,7.494L129.474,5.383L128.207,3.84L127.375,2.838L126.555,1.866L125.746,0.93L125.345,0.476C125.173,0.288 125.124,0.469 125.236,0.879C125.348,1.29 125.578,1.775 125.749,1.963L126.13,2.365L126.906,3.206L127.698,4.089L128.504,5.005L129.741,6.436L131.434,8.402L133.167,10.382L134.941,12.348L136.293,13.777L137.204,14.696L138.121,15.582L139.043,16.426L139.506,16.831C139.542,16.864 139.548,16.81 139.518,16.711C139.488,16.612 139.434,16.506 139.397,16.473" style="fill:rgb(114,114,113);fill-rule:nonzero;"/>
            </g>
            <g transform="matrix(0.341155,0,0,0.339543,0.0062601,13.1468)">
                <path d="M120.372,24.811L119.768,25.411L118.479,26.734L117.157,28.139L115.824,29.592L114.48,31.087L113.126,32.614L111.762,34.164L110.388,35.728L108.31,38.086L105.513,41.204L103.424,43.458L102.046,44.898L100.66,46.3L99.282,47.641L98.627,48.257C97.296,49.553 96.485,51.288 96.815,52.131C97.146,52.973 98.493,52.606 99.824,51.309L100.637,50.494L102.183,48.895L103.698,47.267L105.197,45.606L107.374,43.113L110.164,39.818L112.19,37.381L113.508,35.789L114.798,34.237L116.057,32.732L117.284,31.284L118.479,29.902L119.638,28.595L120.782,27.349L121.375,26.724C122.275,25.804 122.78,24.629 122.503,24.101C122.225,23.573 121.271,23.891 120.372,24.811" style="fill:rgb(114,114,113);fill-rule:nonzero;"/>
            </g>
            <g transform="matrix(0.341155,0,0,0.339543,0.0062601,18.1906)">
                <path d="M64.651,39.402C66.226,40.228 71.407,39.54 75.992,38.638C76.874,38.464 80.421,35.507 81.686,36.171C82.945,36.832 85.187,39.315 87.38,38.164C88.738,37.451 90.107,32.54 91.809,33.135C92.644,33.428 92.113,34.861 92.984,35.317C94.216,35.964 94.593,33.885 95.876,34.558C96.656,34.968 94,36.894 97.141,38.543C98.521,39.267 100.702,35.735 101.389,36.456C102.936,38.079 101.689,42.887 105.456,40.251C107.299,38.961 114.814,31.574 111.692,28.297C107.159,23.539 94.456,18.805 87.199,20.328C83.432,21.119 75.961,23.62 74.095,27.538C73.032,29.768 72.966,34.816 70.931,35.697C66.029,37.819 66.321,37.931 64.651,39.333" style="fill:rgb(114,114,113);fill-rule:nonzero;stroke:rgb(114,114,113);stroke-width:1.02px;"/>
            </g>
        </g>
    </g>
</svg>
