<?xml version="1.0" encoding="UTF-8" standalone="no"?><!DOCTYPE svg PUBLIC "-//W3C//DTD SVG 1.1//EN" "http://www.w3.org/Graphics/SVG/1.1/DTD/svg11.dtd"><svg width="100%" height="100%" viewBox="0 0 45 45" version="1.1" xmlns="http://www.w3.org/2000/svg" xmlns:xlink="http://www.w3.org/1999/xlink" xml:space="preserve" xmlns:serif="http://www.serif.com/" style="fill-rule:evenodd;clip-rule:evenodd;stroke-linecap:round;stroke-linejoin:round;"><g><path d="M37.551,29.621l-0.063,-0.662l-0.1,-1.293l-0.143,-1.303l-0.169,-1.313l-0.163,-1.319l-0.11,-0.993l-0.063,-0.666l-0.055,-0.668l-0.044,-0.672l-0.032,-0.676l-0.018,-0.681l-0.003,-0.342c0,-0.025 -0.073,-0.087 -0.162,-0.137c-0.09,-0.05 -0.162,-0.07 -0.162,-0.045l0.001,0.341l0.013,0.678l0.026,0.674l0.039,0.67l0.05,0.666l0.06,0.664l0.103,0.99l0.156,1.314l0.168,1.314l0.187,1.327l0.201,1.348l0.067,0.664c0.001,0.018 0.051,0.059 0.111,0.092c0.059,0.033 0.106,0.046 0.105,0.028" style="fill:#727271;fill-rule:nonzero;"/><path d="M0.987,18.907l0.267,0.12l0.533,0.221l0.531,0.197l0.531,0.173l0.53,0.151l0.529,0.128l0.529,0.107l0.527,0.086l0.527,0.066l0.525,0.047l0.525,0.029l0.525,0.011l0.523,-0.006l0.523,-0.023l0.522,-0.038l0.522,-0.053l0.52,-0.067l0.521,-0.081l0.52,-0.093l0.519,-0.105l0.778,-0.18l1.035,-0.273l1.034,-0.31l1.033,-0.339l1.031,-0.363l1.03,-0.38l1.542,-0.593l2.052,-0.798l1.537,-0.579l1.024,-0.367l1.024,-0.345l1.029,-0.324l1.03,-0.29l0.774,-0.193l0.516,-0.116l0.518,-0.104l0.517,-0.092l0.519,-0.078l0.519,-0.065l0.519,-0.051l0.521,-0.036l0.521,-0.019l0.522,-0.004l0.523,0.013l0.525,0.032l0.524,0.05l0.526,0.07l0.263,0.042l0,0l0.186,0.033l0.36,0.072l0.342,0.081l0.325,0.089l0.309,0.096l0.293,0.103l0.276,0.11l0.261,0.118l0.245,0.124l0.23,0.131l0.215,0.137l0.2,0.142l0.186,0.149l0.171,0.154l0.157,0.16l0.143,0.164l0.129,0.169l0.116,0.174l0.103,0.178l0.09,0.182l0.078,0.186l0.065,0.189l0.053,0.193l0.041,0.195l0.03,0.199l0.018,0.201l0.007,0.203l-0.003,0.205l-0.015,0.207l-0.024,0.209l-0.056,0.316l-0.108,0.424l-0.145,0.424l-0.179,0.424l-0.21,0.42l-0.239,0.414l-0.266,0.406l-0.29,0.396l-0.312,0.385l-0.332,0.372l-0.351,0.359l-0.371,0.349l-0.392,0.336l-0.412,0.324l-0.43,0.309l-0.448,0.292l-0.462,0.272l-0.233,0.127c-0.07,0.037 -0.167,0.13 -0.217,0.206c-0.05,0.077 -0.034,0.109 0.036,0.071l0.249,-0.133l0.488,-0.284l0.481,-0.311l0.472,-0.337l0.463,-0.362l0.45,-0.385l0.433,-0.405l0.412,-0.422l0.388,-0.434l0.359,-0.442l0.328,-0.447l0.297,-0.45l0.263,-0.452l0.228,-0.451l0.192,-0.45l0.155,-0.446l0.116,-0.441l0.061,-0.327l0.027,-0.217l0.017,-0.214l0.006,-0.212l-0.006,-0.21l-0.016,-0.207l-0.029,-0.204l-0.04,-0.201l-0.052,-0.198l-0.064,-0.194l-0.077,-0.19l-0.09,-0.186l-0.102,-0.182l-0.116,-0.178l-0.129,-0.173l-0.143,-0.168l-0.157,-0.163l-0.171,-0.157l-0.185,-0.152l-0.2,-0.147l-0.214,-0.14l-0.23,-0.134l-0.245,-0.127l-0.26,-0.121l-0.277,-0.114l-0.292,-0.106l-0.309,-0.099l-0.325,-0.092l-0.342,-0.083l-0.359,-0.075l-0.185,-0.035c-0.001,0 -0.001,0 -0.001,0l-0.263,-0.044l-0.526,-0.073l-0.525,-0.054l-0.525,-0.035l-0.523,-0.017l-0.524,0l-0.523,0.018l-0.523,0.034l-0.522,0.049l-0.522,0.064l-0.521,0.077l-0.521,0.091l-0.52,0.103l-0.521,0.115l-0.78,0.193l-1.039,0.292l-1.038,0.327l-1.042,0.361l-1.04,0.384l-1.559,0.605l-2.075,0.829l-1.557,0.616l-1.038,0.396l-1.04,0.379l-1.041,0.356l-1.043,0.327l-1.046,0.292l-0.787,0.193l-0.525,0.115l-0.525,0.103l-0.527,0.09l-0.527,0.078l-0.529,0.063l-0.529,0.049l-0.531,0.033l-0.531,0.016l-0.532,0l-0.534,-0.017l-0.535,-0.036l-0.536,-0.055l-0.537,-0.074l-0.538,-0.095l-0.54,-0.116l-0.541,-0.138l-0.542,-0.16l-0.544,-0.184l-0.545,-0.207l-0.274,-0.113c-0.007,-0.003 -0.027,0.011 -0.046,0.03c-0.019,0.02 -0.029,0.038 -0.022,0.041" style="fill:#727271;fill-rule:nonzero;"/><path d="M3.039,9.86l0.19,0.188l0.39,0.357l0.402,0.331l0.414,0.305l0.426,0.281l0.437,0.258l0.447,0.234l0.459,0.213l0.469,0.191l0.478,0.171l0.489,0.151l0.497,0.132l0.506,0.114l0.515,0.097l0.524,0.081l0.531,0.065l0.538,0.05l0.546,0.036l0.553,0.023l0.559,0.01l0.566,-0.001l0.571,-0.012l0.578,-0.023l0.582,-0.031l0.587,-0.04l0.592,-0.048l0.895,-0.084l1.207,-0.132l1.22,-0.148l1.229,-0.158l1.236,-0.161l1.241,-0.16l1.242,-0.15l1.242,-0.135l1.238,-0.113l1.232,-0.085l0.918,-0.041l0.609,-0.016l0.606,-0.005l0.604,0.005l0.602,0.015l0.598,0.028l0.594,0.042l0.59,0.056l0.585,0.072l0.58,0.087l0.574,0.104l0.569,0.123l0.562,0.14l0.555,0.161l0.549,0.18l0.542,0.202l0.534,0.223l0.527,0.245l0.26,0.131l-0.001,0l0.168,0.09l0.335,0.198l0.336,0.222l0.335,0.245l0.331,0.265l0.326,0.285l0.318,0.304l0.308,0.319l0.297,0.334l0.283,0.347l0.267,0.359l0.249,0.368l0.229,0.376l0.207,0.384l0.182,0.388l0.156,0.391l0.128,0.394l0.097,0.393l0.064,0.392l0.03,0.389l-0.001,0.287l-0.013,0.189l-0.022,0.187l-0.032,0.185l-0.042,0.182l-0.052,0.179l-0.062,0.175l-0.072,0.169l-0.081,0.164l-0.089,0.157l-0.097,0.148l-0.102,0.138l-0.106,0.127l-0.111,0.118l-0.119,0.114l-0.133,0.115l-0.151,0.118l-0.173,0.122l-0.193,0.125l-0.213,0.124l-0.233,0.123l-0.25,0.119l-0.267,0.116l-0.285,0.111l-0.147,0.053l0.003,-0.001l-0.473,0.162l-0.94,0.298l-0.931,0.276l-0.921,0.267l-0.903,0.271l-0.665,0.214l-0.437,0.151l-0.43,0.16l-0.423,0.169l-0.416,0.182l-0.408,0.195l-0.204,0.105c-0.068,0.034 -0.165,0.125 -0.218,0.203c-0.052,0.078 -0.04,0.114 0.028,0.079l0.191,-0.096l0.393,-0.185l0.404,-0.173l0.412,-0.162l0.421,-0.152l0.427,-0.145l0.655,-0.205l0.894,-0.261l0.913,-0.257l0.929,-0.268l0.937,-0.29l0.469,-0.157c0.001,0 0.002,0 0.003,0l0.154,-0.055l0.295,-0.114l0.282,-0.12l0.269,-0.128l0.258,-0.135l0.247,-0.144l0.239,-0.154l0.231,-0.165l0.225,-0.179l0.217,-0.191l0.204,-0.2l0.187,-0.203l0.166,-0.203l0.145,-0.198l0.126,-0.195l0.11,-0.193l0.095,-0.191l0.081,-0.192l0.068,-0.191l0.057,-0.193l0.046,-0.193l0.035,-0.194l0.024,-0.195l0.015,-0.197l0.003,-0.297l-0.028,-0.398l-0.062,-0.399l-0.095,-0.401l-0.126,-0.399l-0.154,-0.397l-0.18,-0.394l-0.205,-0.388l-0.227,-0.382l-0.247,-0.373l-0.265,-0.362l-0.282,-0.351l-0.295,-0.338l-0.307,-0.323l-0.317,-0.307l-0.325,-0.289l-0.331,-0.269l-0.334,-0.248l-0.336,-0.226l-0.335,-0.201l-0.166,-0.09c0,-0.001 0,-0.001 0,-0.001l-0.26,-0.133l-0.526,-0.25l-0.535,-0.225l-0.542,-0.205l-0.549,-0.183l-0.556,-0.162l-0.563,-0.144l-0.569,-0.124l-0.575,-0.107l-0.58,-0.089l-0.586,-0.074l-0.592,-0.057l-0.596,-0.042l-0.6,-0.029l-0.604,-0.016l-0.61,0l-0.614,0.012l-0.618,0.023l-0.931,0.052l-1.248,0.101l-1.254,0.129l-1.257,0.151l-1.258,0.167l-1.255,0.177l-1.252,0.179l-1.243,0.177l-1.234,0.166l-1.221,0.15l-0.907,0.098l-0.599,0.057l-0.594,0.05l-0.59,0.041l-0.584,0.031l-0.579,0.022l-0.572,0.011l-0.567,-0.001l-0.56,-0.013l-0.553,-0.026l-0.547,-0.041l-0.538,-0.055l-0.531,-0.071l-0.522,-0.088l-0.515,-0.104l-0.505,-0.123l-0.496,-0.141l-0.487,-0.161l-0.477,-0.182l-0.467,-0.202l-0.457,-0.225l-0.446,-0.247l-0.435,-0.271l-0.423,-0.295l-0.412,-0.32l-0.4,-0.346l-0.196,-0.183c-0.005,-0.005 -0.025,0.007 -0.044,0.026c-0.019,0.019 -0.031,0.039 -0.026,0.044" style="fill:#727271;fill-rule:nonzero;"/><path d="M6.569,31.468l0.16,-0.058l0.322,-0.11l0.495,-0.156l0.678,-0.195l0.693,-0.193l0.7,-0.2l0.702,-0.221l0.527,-0.187l0.352,-0.138l0.35,-0.151l0.35,-0.166l0.183,-0.095c0.234,-0.13 0.52,-0.419 0.639,-0.646c0.119,-0.227 0.027,-0.305 -0.207,-0.175l-0.151,0.091l-0.328,0.186l-0.343,0.178l-0.352,0.169l-0.547,0.243l-0.75,0.305l-0.759,0.288l-0.758,0.282l-0.745,0.284l-0.545,0.221l-0.354,0.153l-0.173,0.078c-0.049,0.021 -0.12,0.085 -0.158,0.143c-0.039,0.059 -0.03,0.09 0.019,0.07" style="fill:#727271;fill-rule:nonzero;"/><path d="M12.755,28.984l0.201,-0.59l0.419,-1.188l0.443,-1.199l0.462,-1.21l0.481,-1.219l0.496,-1.223l0.509,-1.227l0.519,-1.228l0.793,-1.838l0.801,-1.826l0.535,-1.206l0.533,-1.195l0.528,-1.182l0.521,-1.165l0.512,-1.148l0.251,-0.566c0.13,-0.304 -0.08,-0.46 -0.468,-0.347c-0.388,0.113 -0.808,0.452 -0.938,0.757l-0.228,0.557l-0.463,1.133l-0.474,1.152l-0.48,1.168l-0.485,1.183l-0.488,1.196l-0.729,1.809l-0.721,1.822l-0.471,1.218l-0.461,1.217l-0.448,1.214l-0.434,1.209l-0.415,1.2l-0.396,1.19l-0.374,1.177l-0.177,0.581c-0.042,0.131 0.068,0.187 0.246,0.124c0.179,-0.062 0.357,-0.219 0.4,-0.35" style="fill:#727271;fill-rule:nonzero;"/><path d="M20.03,10.364l0.309,0.829l0.617,1.675l0.604,1.693l0.44,1.28l0.283,0.857l0.275,0.861l0.264,0.863l0.254,0.865l0.24,0.867l0.226,0.869l0.211,0.869l0.194,0.87l0.176,0.871l0.081,0.435c0.016,0.083 0.229,-0.037 0.477,-0.27c0.248,-0.232 0.436,-0.488 0.42,-0.572l-0.084,-0.434l-0.182,-0.867l-0.2,-0.866l-0.217,-0.866l-0.232,-0.864l-0.246,-0.863l-0.259,-0.861l-0.27,-0.859l-0.281,-0.855l-0.289,-0.853l-0.448,-1.273l-0.616,-1.683l-0.628,-1.664l-0.315,-0.824c-0.024,-0.066 -0.225,0.054 -0.447,0.266c-0.222,0.213 -0.382,0.439 -0.357,0.504" style="fill:#727271;fill-rule:nonzero;"/><path d="M15.699,30.459l0.793,-0.111l1.195,-0.182l0.801,-0.131l0.785,-0.145l0.773,-0.157l0.766,-0.169l0.762,-0.179l0.38,-0.094c0.065,-0.016 0.049,-0.047 -0.035,-0.07c-0.084,-0.023 -0.205,-0.029 -0.269,-0.014l-0.38,0.093l-0.762,0.176l-0.764,0.166l-0.763,0.157l-0.755,0.151l-0.745,0.147l-1.131,0.201l-0.761,0.122c-0.033,0.005 -0.035,0.018 -0.005,0.029c0.031,0.01 0.082,0.015 0.115,0.01" style="fill:#727271;fill-rule:nonzero;"/><path d="M22.01,29.261l0.108,-0.359l0.233,-0.716l0.252,-0.713l0.269,-0.71l0.429,-1.061l0.607,-1.409l0.595,-1.409l0.577,-1.409l0.412,-1.06l0.263,-0.707l0.251,-0.71l0.236,-0.711l0.111,-0.356c0.012,-0.038 -0.103,-0.08 -0.256,-0.096c-0.152,-0.015 -0.285,0.003 -0.297,0.04l-0.105,0.357l-0.223,0.711l-0.24,0.71l-0.254,0.708l-0.4,1.06l-0.553,1.412l-0.553,1.413l-0.518,1.419l-0.378,1.067l-0.243,0.713l-0.233,0.715l-0.219,0.718l-0.104,0.36c-0.005,0.015 0.043,0.033 0.108,0.04c0.064,0.006 0.12,-0.001 0.125,-0.017" style="fill:#727271;fill-rule:nonzero;"/><path d="M25.872,17.88l0.15,0.454l0.279,0.919l0.246,0.931l0.217,0.94l0.222,0.946l0.218,0.949l0.214,0.946l0.143,0.706l0.086,0.467l0.041,0.232c0.006,0.045 0.154,0.092 0.33,0.105c0.177,0.013 0.315,-0.013 0.31,-0.058l-0.02,-0.232l-0.049,-0.465l-0.096,-0.703l-0.162,-0.945l-0.213,-0.949l-0.252,-0.949l-0.289,-0.945l-0.28,-0.934l-0.256,-0.918l-0.118,-0.452c-0.015,-0.051 -0.189,-0.102 -0.388,-0.115c-0.199,-0.012 -0.348,0.019 -0.333,0.07" style="fill:#727271;fill-rule:nonzero;"/><path d="M41.542,34.17l-0.139,-0.127l-0.277,-0.265l-0.275,-0.276l-0.273,-0.287l-0.406,-0.446l-0.533,-0.616l-0.523,-0.629l-0.511,-0.621l-0.375,-0.455l-0.246,-0.295l-0.243,-0.287l-0.24,-0.275l-0.118,-0.134c-0.051,-0.055 -0.066,-0.002 -0.032,0.119c0.033,0.121 0.101,0.263 0.151,0.319l0.113,0.118l0.23,0.248l0.234,0.26l0.239,0.27l0.366,0.422l0.501,0.579l0.513,0.583l0.525,0.579l0.4,0.421l0.27,0.271l0.271,0.261l0.273,0.249l0.137,0.119c0.011,0.01 0.013,-0.006 0.004,-0.035c-0.009,-0.029 -0.025,-0.061 -0.036,-0.07" style="fill:#727271;fill-rule:nonzero;"/><path d="M35.911,19.129l-0.179,0.176l-0.382,0.39l-0.391,0.414l-0.394,0.428l-0.398,0.44l-0.401,0.45l-0.404,0.457l-0.406,0.461l-0.615,0.694l-0.828,0.919l-0.619,0.664l-0.408,0.424l-0.41,0.413l-0.408,0.395l-0.194,0.182c-0.394,0.382 -0.634,0.893 -0.536,1.141c0.098,0.248 0.497,0.14 0.891,-0.242l0.24,-0.24l0.458,-0.471l0.448,-0.48l0.444,-0.489l0.645,-0.735l0.825,-0.97l0.6,-0.718l0.39,-0.469l0.382,-0.458l0.373,-0.443l0.363,-0.426l0.353,-0.408l0.344,-0.385l0.338,-0.367l0.176,-0.184c0.266,-0.271 0.415,-0.617 0.333,-0.773c-0.082,-0.155 -0.364,-0.062 -0.63,0.21" style="fill:#727271;fill-rule:nonzero;"/><path d="M19.418,27.803c0.466,0.244 2,0.041 3.357,-0.225c0.261,-0.051 1.311,-0.922 1.685,-0.727c0.372,0.195 1.036,0.926 1.685,0.587c0.402,-0.21 0.808,-1.656 1.311,-1.481c0.247,0.086 0.09,0.508 0.348,0.643c0.365,0.19 0.476,-0.422 0.856,-0.224c0.231,0.121 -0.555,0.688 0.375,1.174c0.408,0.213 1.054,-0.827 1.257,-0.615c0.458,0.478 0.089,1.895 1.204,1.118c0.545,-0.38 2.77,-2.556 1.846,-3.521c-1.342,-1.402 -5.102,-2.797 -7.25,-2.348c-1.115,0.233 -3.327,0.97 -3.879,2.124c-0.315,0.657 -0.334,2.144 -0.936,2.404c-1.452,0.625 -1.365,0.658 -1.859,1.071" style="fill:#727271;fill-rule:nonzero;stroke:#727271;stroke-width:0.3px;"/></g></svg>