<?xml version="1.0" encoding="UTF-8" standalone="no"?><!DOCTYPE svg PUBLIC "-//W3C//DTD SVG 1.1//EN" "http://www.w3.org/Graphics/SVG/1.1/DTD/svg11.dtd"><svg width="100%" height="100%" viewBox="0 0 53 52" version="1.1" xmlns="http://www.w3.org/2000/svg" xmlns:xlink="http://www.w3.org/1999/xlink" xml:space="preserve" xmlns:serif="http://www.serif.com/" style="fill-rule:evenodd;clip-rule:evenodd;stroke-linejoin:round;stroke-miterlimit:2;"><g><path d="M15.363,32.585l0.104,-0.341l0.373,-1.176l0.396,-1.19l0.416,-1.201l0.433,-1.209l0.448,-1.214l0.462,-1.217l0.471,-1.218l0.72,-1.821l0.01,-0.024l-0.9,0.316l-1.032,0.339l-1.035,0.31l-1.035,0.274l-0.778,0.179l-0.519,0.105l-0.52,0.094l-0.52,0.081l-0.521,0.067l-0.522,0.053l-0.522,0.038l-0.523,0.022l-0.523,0.006l-0.524,-0.01l-0.525,-0.029l-0.526,-0.047l-0.527,-0.067l-0.527,-0.086l-0.528,-0.107l-0.529,-0.128l-0.53,-0.15l-0.531,-0.174l-0.532,-0.196l-0.533,-0.221l-0.267,-0.12c-0.006,-0.003 0.003,-0.021 0.022,-0.041c0.019,-0.02 0.04,-0.033 0.047,-0.03l0.273,0.112l0.545,0.208l0.544,0.183l0.543,0.161l0.541,0.137l0.539,0.116l0.539,0.095l0.537,0.075l0.536,0.055l0.534,0.035l0.534,0.018l0.532,0l0.532,-0.017l0.53,-0.033l0.529,-0.049l0.529,-0.063l0.528,-0.077l0.526,-0.091l0.526,-0.102l0.525,-0.115l0.786,-0.193l1.046,-0.293l1.043,-0.327l1.041,-0.355l0.748,-0.273l0.593,-1.471l0.488,-1.195l0.485,-1.183l0.48,-1.169l0.118,-0.287l-0.318,0.039l-1.207,0.132l-0.896,0.084l-0.592,0.047l-0.587,0.04l-0.582,0.032l-0.577,0.022l-0.572,0.012l-0.566,0.002l-0.559,-0.011l-0.553,-0.023l-0.545,-0.036l-0.539,-0.05l-0.531,-0.065l-0.523,-0.08l-0.515,-0.097l-0.507,-0.114l-0.497,-0.133l-0.488,-0.151l-0.479,-0.171l-0.469,-0.191l-0.458,-0.212l-0.448,-0.235l-0.437,-0.257l-0.426,-0.281l-0.414,-0.306l-0.402,-0.331l-0.39,-0.356l-0.19,-0.189c-0.005,-0.005 0.007,-0.024 0.026,-0.044c0.02,-0.019 0.039,-0.031 0.044,-0.026l0.196,0.183l0.4,0.346l0.412,0.321l0.424,0.295l0.435,0.271l0.446,0.247l0.456,0.224l0.467,0.203l0.477,0.181l0.487,0.161l0.496,0.142l0.506,0.122l0.514,0.105l0.523,0.087l0.53,0.071l0.539,0.056l0.546,0.04l0.553,0.027l0.56,0.013l0.567,0l0.573,-0.01l0.578,-0.022l0.584,-0.032l0.59,-0.041l0.594,-0.049l0.599,-0.057l0.907,-0.099l1.221,-0.15l0.155,-0.021l0.218,-0.53l0.464,-1.132l0.227,-0.558c0.13,-0.305 0.55,-0.643 0.938,-0.756c0.292,-0.085 0.482,-0.019 0.504,0.149c0.021,-0.002 0.034,0.003 0.04,0.017l0.315,0.824l0.576,1.527l0.292,-0.042l1.255,-0.176l1.258,-0.167l1.257,-0.151l1.254,-0.13l1.249,-0.1l0.93,-0.053l0.618,-0.023l0.614,-0.012l0.61,0.001l0.604,0.015l0.601,0.029l0.595,0.043l0.592,0.057l0.586,0.073l0.58,0.09l0.575,0.106l0.569,0.125l0.563,0.143l0.556,0.163l0.55,0.183l0.542,0.204l0.534,0.226l0.526,0.249l0.26,0.134l0.167,0.091l0.335,0.201l0.335,0.225l0.335,0.249l0.33,0.269l0.325,0.289l0.317,0.306l0.307,0.323l0.296,0.338l0.281,0.351l0.265,0.363l0.247,0.373l0.227,0.381l0.205,0.388l0.18,0.394l0.154,0.397l0.126,0.4l0.095,0.4l0.063,0.4l0.027,0.397l-0.003,0.297l-0.015,0.197l-0.024,0.195l-0.035,0.195l-0.045,0.193l-0.057,0.192l-0.069,0.192l-0.081,0.191l-0.095,0.191l-0.11,0.193l-0.126,0.195l-0.145,0.199l-0.166,0.202l-0.186,0.204l-0.205,0.2l-0.216,0.191l-0.225,0.178l-0.232,0.166l-0.239,0.154l-0.247,0.143l-0.258,0.136l-0.269,0.127l-0.281,0.121l-0.296,0.113l-0.154,0.055c-0.001,0 -0.001,0.001 -0.002,0.001l-0.47,0.157l-0.937,0.29l-0.928,0.267l-0.75,0.211l0.03,0.237l0.168,1.314l0.144,1.303l0.099,1.292l0.063,0.663c0,0.006 -0.005,0.009 -0.016,0.007l0.206,0.238l0.243,0.286l0.246,0.295l0.375,0.455l0.511,0.622l0.523,0.629l0.533,0.616l0.406,0.446l0.273,0.287l0.275,0.276l0.277,0.264l0.14,0.127c0.01,0.01 0.026,0.041 0.035,0.07c0.009,0.029 0.007,0.045 -0.003,0.035l-0.137,-0.119l-0.273,-0.249l-0.272,-0.26l-0.269,-0.271l-0.401,-0.421l-0.525,-0.579l-0.513,-0.584l-0.501,-0.579l-0.366,-0.421l-0.238,-0.27l-0.235,-0.26l-0.23,-0.248l-0.112,-0.119c-0.051,-0.055 -0.119,-0.198 -0.152,-0.319c-0.008,-0.027 -0.013,-0.051 -0.015,-0.071c-0.001,-0.001 -0.001,-0.002 -0.001,-0.003l-0.067,-0.665l-0.2,-1.348l-0.187,-1.327l-0.161,-1.255l-0.731,0.213l-0.654,0.206l-0.428,0.144l-0.421,0.153l-0.412,0.161l-0.403,0.173l-0.394,0.185l-0.093,0.047c-0.506,0.834 -1.374,1.646 -1.688,1.865c-1.115,0.776 -0.746,-0.64 -1.204,-1.118c-0.203,-0.213 -0.849,0.828 -1.257,0.615c-0.93,-0.486 -0.144,-1.054 -0.375,-1.174c-0.379,-0.199 -0.491,0.414 -0.856,0.223c-0.257,-0.134 -0.1,-0.556 -0.348,-0.642c-0.503,-0.176 -0.908,1.271 -1.31,1.481c-0.65,0.339 -1.313,-0.393 -1.686,-0.587c-0.374,-0.196 -1.424,0.675 -1.685,0.727c-0.074,0.014 -0.149,0.028 -0.224,0.043l-0.2,0.564l-0.233,0.716l-0.108,0.359c-0.001,0.005 -0.008,0.01 -0.019,0.013c-0.005,0.007 -0.017,0.013 -0.036,0.017l-0.381,0.094l-0.762,0.18l-0.766,0.168l-0.772,0.158l-0.786,0.144l-0.801,0.131l-1.194,0.182l-0.794,0.112c-0.033,0.005 -0.084,0 -0.114,-0.011c-0.031,-0.01 -0.029,-0.023 0.004,-0.028l0.762,-0.123l1.13,-0.201l0.745,-0.146l0.755,-0.151l0.763,-0.157l0.764,-0.167l0.762,-0.176l0.38,-0.092c0.035,-0.008 0.085,-0.011 0.138,-0.007l0.094,-0.323l0.219,-0.717l0.158,-0.486c-1.209,0.213 -2.433,0.342 -2.841,0.129l0,-0.021c0.494,-0.413 0.408,-0.446 1.859,-1.071c0.602,-0.259 0.622,-1.746 0.936,-2.403c0.28,-0.585 0.986,-1.063 1.759,-1.422l-0.025,-0.124l-0.194,-0.87l-0.211,-0.87l-0.226,-0.868l-0.24,-0.868l-0.253,-0.865l-0.265,-0.863l-0.275,-0.86l-0.213,-0.647l-1.298,0.49l-2.053,0.798l-1.542,0.592l-0.05,0.018l-0.049,0.113l-0.793,1.838l-0.519,1.227l-0.509,1.227l-0.496,1.224l-0.481,1.218l-0.462,1.21l-0.443,1.2l-0.419,1.187l-0.201,0.59c-0.033,0.101 -0.147,0.218 -0.28,0.295c-0.123,0.13 -0.266,0.248 -0.394,0.319l-0.183,0.095l-0.35,0.167l-0.349,0.15l-0.353,0.139l-0.527,0.187l-0.702,0.22l-0.7,0.201l-0.693,0.192l-0.678,0.196l-0.495,0.155l-0.322,0.11l-0.159,0.059c-0.05,0.02 -0.059,-0.011 -0.02,-0.07c0.038,-0.059 0.109,-0.123 0.158,-0.143l0.173,-0.078l0.354,-0.154l0.545,-0.221l0.745,-0.284l0.758,-0.282l0.76,-0.288l0.749,-0.304l0.547,-0.243l0.352,-0.17l0.343,-0.178l0.149,-0.084Zm24.315,-5.994l-0.07,0.071l-0.433,0.406l-0.45,0.385l-0.462,0.362l-0.473,0.337l-0.481,0.311l-0.488,0.284l-0.079,0.042c-0.014,0.236 -0.101,0.494 -0.233,0.755l0.151,-0.077l0.409,-0.196l0.416,-0.181l0.423,-0.17l0.429,-0.159l0.437,-0.151l0.665,-0.214l0.43,-0.129l-0.133,-1.118l-0.058,-0.558Zm-0.225,-3.354c-0.021,0.024 -0.042,0.048 -0.065,0.071l-0.176,0.184l-0.338,0.367l-0.343,0.385l-0.354,0.407l-0.363,0.427l-0.373,0.443l-0.382,0.457l-0.39,0.469l-0.6,0.718l-0.303,0.357c0.298,0.204 0.554,0.414 0.756,0.625c0.128,0.134 0.196,0.291 0.216,0.464c0.005,-0.003 0.01,-0.006 0.015,-0.009l0.233,-0.126l0.462,-0.272l0.448,-0.293l0.431,-0.309l0.412,-0.324l0.391,-0.336l0.371,-0.348l0.16,-0.164l-0.028,-0.271l-0.059,-0.663l-0.05,-0.666l-0.039,-0.67l-0.027,-0.674l-0.005,-0.249Zm0.742,4.932l0.148,-0.045l0.92,-0.267l0.931,-0.276l0.94,-0.297l0.471,-0.162l0.147,-0.053l0.284,-0.111l0.268,-0.115l0.25,-0.12l0.232,-0.123l0.213,-0.124l0.193,-0.124l0.173,-0.122l0.152,-0.119l0.133,-0.114l0.118,-0.114l0.111,-0.118l0.107,-0.127l0.102,-0.138l0.096,-0.148l0.089,-0.157l0.081,-0.164l0.072,-0.17l0.062,-0.174l0.052,-0.179l0.042,-0.182l0.032,-0.185l0.022,-0.188l0.013,-0.189l0.001,-0.287l-0.03,-0.388l-0.064,-0.392l-0.097,-0.394l-0.128,-0.393l-0.156,-0.392l-0.182,-0.388l-0.207,-0.383l-0.229,-0.377l-0.249,-0.368l-0.267,-0.358l-0.283,-0.348l-0.296,-0.334l-0.309,-0.319l-0.318,-0.303l-0.326,-0.285l-0.331,-0.266l-0.335,-0.245l-0.336,-0.222l-0.335,-0.198l-0.167,-0.089l-0.26,-0.131l-0.527,-0.246l-0.534,-0.223l-0.542,-0.201l-0.548,-0.181l-0.556,-0.16l-0.562,-0.141l-0.569,-0.122l-0.574,-0.105l-0.58,-0.087l-0.585,-0.071l-0.589,-0.057l-0.594,-0.041l-0.599,-0.028l-0.602,-0.015l-0.604,-0.005l-0.606,0.005l-0.609,0.015l-0.918,0.042l-1.232,0.085l-1.238,0.113l-1.241,0.134l-1.243,0.151l-1.061,0.136l0.541,1.478l0.448,1.273l0.117,0.345l0.745,-0.275l1.042,-0.362l1.038,-0.326l1.039,-0.293l0.78,-0.193l0.521,-0.114l0.52,-0.104l0.521,-0.09l0.522,-0.078l0.521,-0.064l0.523,-0.049l0.522,-0.034l0.524,-0.017l0.523,-0.001l0.524,0.017l0.524,0.035l0.525,0.054l0.526,0.073l0.264,0.045l0.185,0.034l0.359,0.075l0.342,0.084l0.326,0.091l0.308,0.099l0.293,0.107l0.276,0.114l0.26,0.12l0.245,0.128l0.23,0.134l0.215,0.14l0.199,0.146l0.186,0.152l0.171,0.158l0.156,0.163l0.143,0.168l0.129,0.173l0.116,0.177l0.103,0.182l0.089,0.186l0.077,0.191l0.065,0.194l0.052,0.197l0.04,0.201l0.028,0.204l0.017,0.207l0.005,0.21l-0.006,0.212l-0.017,0.215l-0.027,0.216l-0.061,0.327l-0.115,0.441l-0.155,0.447l-0.193,0.45l-0.228,0.451l-0.263,0.451l-0.296,0.45l-0.329,0.448l-0.359,0.442l-0.388,0.434l-0.043,0.044l0.007,0.068l0.109,0.994l0.102,0.822Zm3.41,-1.047l-0.001,0.001l0.003,-0.001l-0.002,0Zm-14.509,-5.673c0.057,-0.022 0.163,-0.031 0.289,-0.023c0.2,0.012 0.374,0.064 0.389,0.115l0.117,0.452l0.256,0.917l0.28,0.934l0.289,0.945l0.253,0.949l0.005,0.024c1.381,0.158 2.942,0.693 4.132,1.353l0.415,-0.46l0.615,-0.695l0.406,-0.461l0.404,-0.456l0.401,-0.45l0.398,-0.44l0.394,-0.429l0.392,-0.413l0.381,-0.39l0.179,-0.177c0.121,-0.123 0.246,-0.21 0.353,-0.253l0,-0.025c0,-0.016 0.028,-0.014 0.071,0.002c0.095,-0.022 0.171,-0.002 0.207,0.067c0.011,0.021 0.018,0.046 0.021,0.074c0.016,0.017 0.025,0.03 0.025,0.039l0.004,0.342l0.018,0.681l0.031,0.676l0.044,0.673l0.055,0.668l0.041,0.425l0.223,-0.251l0.312,-0.384l0.29,-0.396l0.266,-0.406l0.239,-0.415l0.211,-0.42l0.178,-0.423l0.145,-0.425l0.108,-0.424l0.056,-0.316l0.025,-0.208l0.014,-0.207l0.004,-0.206l-0.008,-0.203l-0.018,-0.201l-0.03,-0.198l-0.041,-0.196l-0.053,-0.192l-0.065,-0.19l-0.077,-0.186l-0.091,-0.182l-0.103,-0.178l-0.116,-0.173l-0.129,-0.17l-0.143,-0.164l-0.157,-0.159l-0.171,-0.154l-0.186,-0.149l-0.2,-0.143l-0.214,-0.137l-0.23,-0.13l-0.246,-0.125l-0.26,-0.117l-0.277,-0.111l-0.293,-0.103l-0.309,-0.096l-0.325,-0.088l-0.342,-0.081l-0.36,-0.073l-0.186,-0.033l-0.262,-0.042l-0.526,-0.07l-0.525,-0.05l-0.524,-0.031l-0.524,-0.014l-0.522,0.004l-0.521,0.02l-0.52,0.035l-0.52,0.051l-0.519,0.065l-0.518,0.079l-0.518,0.092l-0.517,0.104l-0.517,0.115l-0.773,0.193l-1.031,0.291l-1.029,0.323l-1.024,0.345l-0.269,0.097l0.068,0.199l0.28,0.856l0.271,0.859l0.258,0.86l0.247,0.863l0.232,0.865l0.216,0.865l0.031,0.131l0.313,-0.828l0.253,-0.708l0.24,-0.71l0.224,-0.712l0.105,-0.356c0.006,-0.021 0.05,-0.036 0.115,-0.042Zm0.204,0.822l-0.114,0.343l-0.251,0.709l-0.263,0.708l-0.412,1.059l-0.224,0.548l0.099,0.475c0.425,-0.143 0.824,-0.248 1.137,-0.313c0.277,-0.058 0.58,-0.085 0.901,-0.086l-0.007,-0.028l-0.221,-0.947l-0.218,-0.939l-0.246,-0.932l-0.181,-0.597Zm-8.847,-1.039l0.199,-0.076l1.557,-0.615l2.075,-0.83l0.868,-0.337l-0.411,-1.198l-0.605,-1.693l-0.163,-0.443l-0.357,0.047l-0.932,0.12l-0.028,0.062l-0.529,1.181l-0.533,1.196l-0.535,1.206l-0.606,1.38Zm16.949,-3.532l0.001,0l-0.001,0l0,0Zm4.603,-0.665l0,0l0,0l0,0Zm-18.828,-1.932l-0.336,0.752l1.011,-0.144l-0.333,-0.902l-0.096,-0.259l-0.246,0.553Z" style="fill:#727271;fill-rule:nonzero;"/></g></svg>