<?xml version="1.0" encoding="UTF-8" standalone="no"?><!DOCTYPE svg PUBLIC "-//W3C//DTD SVG 1.1//EN" "http://www.w3.org/Graphics/SVG/1.1/DTD/svg11.dtd"><svg width="100%" height="100%" viewBox="0 0 53 52" version="1.1" xmlns="http://www.w3.org/2000/svg" xmlns:xlink="http://www.w3.org/1999/xlink" xml:space="preserve" xmlns:serif="http://www.serif.com/" style="fill-rule:evenodd;clip-rule:evenodd;stroke-linecap:round;stroke-linejoin:round;"><g><path d="M40.885,33.075l-0.063,-0.662l-0.099,-1.293l-0.144,-1.303l-0.168,-1.313l-0.163,-1.319l-0.11,-0.993l-0.064,-0.665l-0.054,-0.669l-0.044,-0.672l-0.032,-0.676l-0.018,-0.681l-0.003,-0.342c-0.001,-0.025 -0.073,-0.086 -0.163,-0.137c-0.089,-0.05 -0.161,-0.07 -0.161,-0.045l0,0.341l0.013,0.679l0.027,0.674l0.039,0.669l0.05,0.667l0.059,0.663l0.104,0.99l0.155,1.315l0.169,1.313l0.187,1.327l0.2,1.348l0.067,0.665c0.002,0.017 0.052,0.058 0.111,0.092c0.06,0.033 0.107,0.045 0.105,0.027" style="fill:#727271;fill-rule:nonzero;"/><path d="M4.322,22.362l0.267,0.119l0.532,0.222l0.532,0.196l0.531,0.173l0.53,0.151l0.529,0.128l0.528,0.107l0.528,0.086l0.526,0.066l0.526,0.048l0.525,0.028l0.524,0.011l0.524,-0.006l0.523,-0.023l0.522,-0.038l0.521,-0.053l0.521,-0.067l0.52,-0.08l0.52,-0.094l0.52,-0.105l0.777,-0.179l1.036,-0.274l1.034,-0.31l1.033,-0.339l1.031,-0.363l1.029,-0.38l1.542,-0.592l2.053,-0.799l1.537,-0.579l1.023,-0.367l1.024,-0.345l1.029,-0.323l1.031,-0.291l0.774,-0.193l0.516,-0.116l0.517,-0.104l0.518,-0.091l0.518,-0.079l0.519,-0.065l0.52,-0.051l0.52,-0.035l0.521,-0.02l0.523,-0.004l0.523,0.013l0.524,0.032l0.525,0.05l0.526,0.07l0.263,0.042l-0.001,0l0.187,0.033l0.359,0.073l0.342,0.08l0.326,0.089l0.308,0.096l0.293,0.103l0.277,0.111l0.261,0.117l0.245,0.124l0.23,0.131l0.215,0.137l0.2,0.143l0.185,0.148l0.171,0.154l0.157,0.16l0.143,0.164l0.13,0.169l0.116,0.174l0.103,0.178l0.09,0.182l0.077,0.186l0.065,0.189l0.054,0.193l0.041,0.196l0.029,0.198l0.019,0.201l0.007,0.203l-0.004,0.205l-0.014,0.207l-0.025,0.209l-0.055,0.316l-0.109,0.424l-0.144,0.424l-0.179,0.424l-0.21,0.42l-0.24,0.414l-0.266,0.407l-0.29,0.396l-0.311,0.384l-0.332,0.372l-0.351,0.36l-0.372,0.348l-0.391,0.336l-0.412,0.324l-0.431,0.309l-0.447,0.292l-0.463,0.273l-0.233,0.126c-0.07,0.037 -0.167,0.13 -0.216,0.207c-0.05,0.076 -0.034,0.108 0.036,0.07l0.249,-0.133l0.487,-0.283l0.481,-0.311l0.473,-0.337l0.462,-0.362l0.45,-0.386l0.433,-0.405l0.413,-0.422l0.387,-0.433l0.359,-0.443l0.329,-0.447l0.297,-0.45l0.263,-0.451l0.228,-0.452l0.192,-0.449l0.155,-0.447l0.116,-0.441l0.06,-0.327l0.028,-0.217l0.016,-0.214l0.006,-0.212l-0.005,-0.21l-0.017,-0.207l-0.028,-0.204l-0.04,-0.201l-0.052,-0.198l-0.064,-0.194l-0.077,-0.19l-0.09,-0.186l-0.103,-0.182l-0.115,-0.178l-0.13,-0.173l-0.142,-0.168l-0.157,-0.162l-0.171,-0.158l-0.185,-0.152l-0.2,-0.146l-0.215,-0.14l-0.229,-0.134l-0.245,-0.128l-0.261,-0.121l-0.276,-0.113l-0.292,-0.107l-0.309,-0.099l-0.325,-0.091l-0.343,-0.084l-0.358,-0.075l-0.186,-0.034c0,0 0,0 0,0l-0.264,-0.045l-0.526,-0.073l-0.525,-0.054l-0.524,-0.035l-0.524,-0.017l-0.523,0l-0.523,0.018l-0.523,0.034l-0.522,0.049l-0.522,0.064l-0.521,0.078l-0.521,0.09l-0.521,0.103l-0.52,0.115l-0.781,0.193l-1.038,0.293l-1.038,0.326l-1.042,0.362l-1.041,0.383l-1.558,0.605l-2.075,0.829l-1.557,0.616l-1.039,0.397l-1.039,0.379l-1.041,0.355l-1.044,0.327l-1.046,0.292l-0.786,0.194l-0.525,0.114l-0.526,0.103l-0.526,0.091l-0.528,0.077l-0.528,0.063l-0.53,0.049l-0.53,0.033l-0.531,0.017l-0.533,0l-0.533,-0.018l-0.535,-0.036l-0.536,-0.054l-0.537,-0.075l-0.538,-0.095l-0.54,-0.116l-0.541,-0.138l-0.542,-0.16l-0.544,-0.183l-0.546,-0.208l-0.273,-0.113c-0.007,-0.003 -0.028,0.011 -0.046,0.031c-0.019,0.019 -0.029,0.038 -0.022,0.041" style="fill:#727271;fill-rule:nonzero;"/><path d="M6.373,13.314l0.191,0.188l0.389,0.357l0.402,0.331l0.414,0.306l0.426,0.281l0.437,0.257l0.448,0.235l0.459,0.212l0.468,0.191l0.479,0.171l0.488,0.151l0.498,0.132l0.506,0.115l0.515,0.097l0.523,0.08l0.531,0.065l0.539,0.05l0.546,0.036l0.553,0.023l0.559,0.011l0.565,-0.002l0.572,-0.012l0.577,-0.022l0.583,-0.032l0.587,-0.04l0.592,-0.048l0.895,-0.083l1.207,-0.132l1.22,-0.149l1.229,-0.158l1.236,-0.161l1.24,-0.159l1.243,-0.151l1.242,-0.135l1.237,-0.112l1.232,-0.085l0.918,-0.042l0.609,-0.016l0.606,-0.005l0.604,0.006l0.603,0.014l0.598,0.028l0.594,0.042l0.589,0.057l0.586,0.071l0.579,0.087l0.575,0.105l0.568,0.122l0.562,0.141l0.556,0.16l0.549,0.18l0.541,0.202l0.534,0.223l0.527,0.246l0.26,0.131l0,-0.001l0.167,0.09l0.336,0.198l0.336,0.222l0.334,0.245l0.331,0.266l0.326,0.285l0.318,0.303l0.309,0.319l0.297,0.334l0.282,0.347l0.267,0.359l0.249,0.368l0.229,0.377l0.207,0.383l0.183,0.388l0.156,0.392l0.127,0.393l0.097,0.394l0.065,0.391l0.03,0.389l-0.002,0.287l-0.012,0.189l-0.023,0.188l-0.032,0.185l-0.042,0.182l-0.052,0.178l-0.062,0.175l-0.071,0.17l-0.081,0.164l-0.09,0.157l-0.096,0.148l-0.102,0.137l-0.106,0.128l-0.111,0.118l-0.119,0.113l-0.133,0.115l-0.152,0.118l-0.172,0.123l-0.194,0.124l-0.213,0.124l-0.232,0.123l-0.25,0.119l-0.267,0.116l-0.285,0.111l-0.147,0.053l0.002,0l-0.473,0.161l-0.939,0.298l-0.932,0.276l-0.92,0.267l-0.904,0.271l-0.665,0.215l-0.436,0.151l-0.43,0.159l-0.423,0.17l-0.416,0.181l-0.409,0.195l-0.203,0.105c-0.068,0.034 -0.165,0.126 -0.218,0.204c-0.052,0.078 -0.04,0.113 0.028,0.078l0.19,-0.096l0.394,-0.185l0.403,-0.173l0.413,-0.162l0.42,-0.152l0.428,-0.144l0.655,-0.206l0.894,-0.261l0.913,-0.257l0.928,-0.268l0.938,-0.29l0.469,-0.156c0.001,-0.001 0.002,-0.001 0.002,-0.001l0.155,-0.055l0.295,-0.113l0.282,-0.121l0.269,-0.127l0.257,-0.136l0.248,-0.144l0.238,-0.154l0.232,-0.165l0.225,-0.178l0.217,-0.191l0.204,-0.2l0.187,-0.204l0.165,-0.202l0.146,-0.199l0.126,-0.195l0.109,-0.193l0.095,-0.191l0.081,-0.191l0.069,-0.192l0.057,-0.192l0.046,-0.194l0.034,-0.194l0.025,-0.195l0.014,-0.197l0.004,-0.297l-0.028,-0.397l-0.063,-0.4l-0.095,-0.4l-0.125,-0.4l-0.154,-0.397l-0.181,-0.394l-0.204,-0.388l-0.227,-0.381l-0.247,-0.373l-0.266,-0.363l-0.281,-0.351l-0.295,-0.338l-0.308,-0.323l-0.317,-0.307l-0.325,-0.288l-0.33,-0.27l-0.334,-0.248l-0.336,-0.225l-0.335,-0.201l-0.166,-0.091c0,0 -0.001,0 -0.001,0l-0.26,-0.134l-0.526,-0.249l-0.534,-0.226l-0.542,-0.204l-0.549,-0.183l-0.556,-0.163l-0.563,-0.143l-0.569,-0.125l-0.575,-0.107l-0.581,-0.089l-0.586,-0.074l-0.591,-0.057l-0.596,-0.042l-0.6,-0.029l-0.605,-0.015l-0.609,-0.001l-0.615,0.012l-0.617,0.023l-0.931,0.052l-1.248,0.101l-1.255,0.129l-1.257,0.152l-1.257,0.166l-1.256,0.177l-1.251,0.18l-1.244,0.176l-1.234,0.166l-1.221,0.15l-0.906,0.099l-0.599,0.057l-0.595,0.049l-0.589,0.041l-0.584,0.032l-0.579,0.021l-0.573,0.011l-0.566,-0.001l-0.561,-0.013l-0.553,-0.026l-0.546,-0.04l-0.538,-0.056l-0.531,-0.071l-0.523,-0.087l-0.514,-0.105l-0.505,-0.122l-0.497,-0.142l-0.486,-0.161l-0.477,-0.181l-0.468,-0.203l-0.456,-0.224l-0.446,-0.248l-0.435,-0.271l-0.424,-0.295l-0.412,-0.32l-0.4,-0.346l-0.195,-0.183c-0.005,-0.005 -0.025,0.007 -0.044,0.026c-0.02,0.019 -0.031,0.039 -0.027,0.044" style="fill:#727271;fill-rule:nonzero;"/><path d="M9.904,34.922l0.159,-0.058l0.322,-0.11l0.495,-0.155l0.679,-0.196l0.692,-0.192l0.701,-0.201l0.702,-0.221l0.527,-0.186l0.352,-0.139l0.349,-0.151l0.35,-0.166l0.183,-0.095c0.234,-0.13 0.521,-0.419 0.64,-0.646c0.119,-0.226 0.026,-0.305 -0.208,-0.174l-0.15,0.09l-0.329,0.186l-0.343,0.178l-0.352,0.17l-0.546,0.243l-0.75,0.304l-0.759,0.288l-0.758,0.282l-0.746,0.284l-0.545,0.221l-0.354,0.153l-0.172,0.079c-0.05,0.02 -0.121,0.084 -0.159,0.143c-0.038,0.058 -0.029,0.09 0.02,0.069" style="fill:#727271;fill-rule:nonzero;"/><path d="M16.089,32.438l0.201,-0.59l0.42,-1.187l0.442,-1.2l0.463,-1.21l0.48,-1.218l0.496,-1.224l0.509,-1.227l0.519,-1.227l0.793,-1.839l0.802,-1.825l0.535,-1.206l0.533,-1.196l0.528,-1.181l0.521,-1.166l0.511,-1.147l0.251,-0.566c0.13,-0.305 -0.079,-0.46 -0.468,-0.347c-0.388,0.113 -0.808,0.451 -0.938,0.756l-0.227,0.558l-0.464,1.132l-0.473,1.152l-0.481,1.168l-0.485,1.184l-0.487,1.195l-0.73,1.81l-0.72,1.821l-0.471,1.218l-0.461,1.217l-0.449,1.214l-0.433,1.209l-0.416,1.2l-0.396,1.191l-0.373,1.176l-0.177,0.581c-0.042,0.132 0.068,0.187 0.246,0.125c0.178,-0.063 0.357,-0.22 0.399,-0.351" style="fill:#727271;fill-rule:nonzero;"/><path d="M23.364,13.818l0.31,0.83l0.616,1.674l0.605,1.693l0.439,1.28l0.284,0.857l0.275,0.861l0.264,0.863l0.253,0.865l0.24,0.867l0.227,0.869l0.21,0.869l0.195,0.87l0.176,0.871l0.081,0.435c0.015,0.084 0.229,-0.037 0.477,-0.269c0.247,-0.233 0.435,-0.489 0.42,-0.573l-0.084,-0.434l-0.182,-0.867l-0.2,-0.866l-0.217,-0.866l-0.232,-0.864l-0.246,-0.863l-0.259,-0.861l-0.27,-0.858l-0.281,-0.856l-0.289,-0.853l-0.448,-1.273l-0.616,-1.683l-0.628,-1.664l-0.315,-0.824c-0.025,-0.065 -0.225,0.054 -0.447,0.267c-0.222,0.212 -0.383,0.438 -0.358,0.503" style="fill:#727271;fill-rule:nonzero;"/><path d="M19.033,33.913l0.794,-0.111l1.195,-0.182l0.8,-0.131l0.786,-0.144l0.772,-0.158l0.766,-0.168l0.763,-0.18l0.38,-0.094c0.064,-0.016 0.049,-0.047 -0.035,-0.07c-0.084,-0.023 -0.205,-0.029 -0.27,-0.013l-0.379,0.092l-0.762,0.176l-0.765,0.166l-0.763,0.158l-0.755,0.151l-0.744,0.146l-1.131,0.201l-0.762,0.123c-0.032,0.005 -0.034,0.017 -0.004,0.028c0.03,0.011 0.082,0.015 0.114,0.01" style="fill:#727271;fill-rule:nonzero;"/><path d="M25.345,32.715l0.107,-0.359l0.234,-0.716l0.252,-0.713l0.268,-0.71l0.429,-1.061l0.608,-1.409l0.594,-1.409l0.578,-1.409l0.412,-1.059l0.263,-0.708l0.25,-0.709l0.236,-0.712l0.112,-0.356c0.011,-0.038 -0.103,-0.08 -0.256,-0.096c-0.153,-0.015 -0.286,0.003 -0.297,0.04l-0.105,0.357l-0.224,0.712l-0.239,0.709l-0.254,0.709l-0.401,1.06l-0.552,1.412l-0.553,1.413l-0.519,1.418l-0.378,1.067l-0.242,0.713l-0.233,0.716l-0.219,0.717l-0.105,0.36c-0.004,0.016 0.044,0.034 0.108,0.04c0.065,0.006 0.121,-0.001 0.126,-0.017" style="fill:#727271;fill-rule:nonzero;"/><path d="M29.206,21.335l0.15,0.453l0.279,0.919l0.247,0.932l0.217,0.939l0.222,0.947l0.217,0.948l0.214,0.946l0.143,0.706l0.087,0.467l0.041,0.232c0.005,0.045 0.153,0.092 0.33,0.105c0.176,0.013 0.315,-0.013 0.309,-0.058l-0.02,-0.231l-0.049,-0.466l-0.096,-0.703l-0.161,-0.945l-0.213,-0.949l-0.253,-0.949l-0.288,-0.945l-0.28,-0.934l-0.256,-0.918l-0.118,-0.451c-0.015,-0.052 -0.189,-0.103 -0.388,-0.116c-0.2,-0.012 -0.349,0.019 -0.334,0.071" style="fill:#727271;fill-rule:nonzero;"/><path d="M44.877,37.624l-0.139,-0.127l-0.277,-0.264l-0.275,-0.277l-0.273,-0.286l-0.406,-0.447l-0.533,-0.615l-0.524,-0.629l-0.51,-0.622l-0.375,-0.455l-0.247,-0.295l-0.243,-0.286l-0.239,-0.276l-0.119,-0.134c-0.051,-0.055 -0.065,-0.002 -0.032,0.119c0.033,0.121 0.101,0.264 0.152,0.319l0.113,0.118l0.23,0.248l0.234,0.26l0.239,0.27l0.366,0.422l0.501,0.579l0.513,0.583l0.525,0.579l0.4,0.421l0.27,0.271l0.271,0.261l0.273,0.249l0.137,0.119c0.011,0.01 0.012,-0.006 0.003,-0.035c-0.008,-0.029 -0.024,-0.061 -0.035,-0.07" style="fill:#727271;fill-rule:nonzero;"/><path d="M39.245,22.583l-0.178,0.177l-0.382,0.389l-0.391,0.414l-0.395,0.428l-0.398,0.441l-0.4,0.449l-0.404,0.457l-0.407,0.461l-0.615,0.695l-0.828,0.918l-0.618,0.664l-0.408,0.424l-0.41,0.413l-0.408,0.395l-0.194,0.182c-0.394,0.382 -0.634,0.893 -0.536,1.141c0.098,0.248 0.496,0.14 0.89,-0.242l0.241,-0.24l0.457,-0.471l0.449,-0.48l0.444,-0.489l0.644,-0.734l0.826,-0.971l0.6,-0.718l0.39,-0.469l0.381,-0.457l0.373,-0.444l0.363,-0.426l0.354,-0.407l0.343,-0.385l0.339,-0.367l0.175,-0.185c0.267,-0.271 0.416,-0.617 0.334,-0.772c-0.082,-0.156 -0.364,-0.062 -0.631,0.209" style="fill:#727271;fill-rule:nonzero;"/><path d="M22.752,31.258c0.466,0.243 2,0.04 3.357,-0.226c0.261,-0.051 1.311,-0.922 1.686,-0.726c0.372,0.194 1.036,0.926 1.685,0.587c0.402,-0.21 0.807,-1.657 1.311,-1.482c0.247,0.086 0.09,0.509 0.348,0.643c0.364,0.191 0.476,-0.422 0.856,-0.223c0.23,0.12 -0.556,0.688 0.374,1.173c0.408,0.214 1.054,-0.827 1.258,-0.614c0.457,0.478 0.088,1.894 1.203,1.117c0.546,-0.379 2.77,-2.556 1.846,-3.521c-1.342,-1.402 -5.102,-2.796 -7.25,-2.348c-1.115,0.233 -3.326,0.97 -3.879,2.124c-0.314,0.657 -0.334,2.145 -0.936,2.404c-1.451,0.625 -1.364,0.658 -1.859,1.071" style="fill:#727271;fill-rule:nonzero;stroke:#727271;stroke-width:0.3px;"/></g></svg>