<?xml version="1.0" encoding="UTF-8"?>
<!DOCTYPE svg PUBLIC "-//W3C//DTD SVG 1.1//EN" "http://www.w3.org/Graphics/SVG/1.1/DTD/svg11.dtd">
<svg version="1.1" xmlns="http://www.w3.org/2000/svg" xmlns:xlink="http://www.w3.org/1999/xlink" x="0" y="0" width="80" height="20" viewBox="0, 0, 80, 20">
  <g id="Layer_1">
    <text transform="matrix(1, 0, 0, 1, 53.13, 10.846)">
      <tspan x="-27.704" y="2.5" font-family="Helvetica" font-size="9" fill="#1FBE86">CFG Analysis</tspan>
    </text>
    <path d="M4.912,14.87 L4.977,14.637 L5.207,13.834 L5.451,13.022 L5.708,12.202 L5.976,11.378 L6.253,10.549 L6.537,9.719 L6.828,8.888 L7.273,7.644 L7.279,7.628 L6.723,7.844 L6.086,8.076 L5.447,8.287 L4.808,8.474 L4.328,8.596 L4.008,8.668 L3.687,8.732 L3.365,8.787 L3.044,8.832 L2.722,8.868 L2.4,8.895 L2.077,8.91 L1.754,8.914 L1.43,8.907 L1.106,8.887 L0.781,8.855 L0.456,8.81 L0.131,8.751 L-0.195,8.678 L-0.522,8.59 L-0.849,8.488 L-1.177,8.37 L-1.505,8.235 L-1.834,8.084 L-1.999,8.003 C-2.003,8.001 -1.997,7.988 -1.985,7.975 C-1.974,7.961 -1.961,7.952 -1.957,7.954 L-1.788,8.031 L-1.451,8.173 L-1.115,8.298 L-0.78,8.407 L-0.447,8.501 L-0.113,8.58 L0.219,8.645 L0.551,8.696 L0.881,8.733 L1.211,8.758 L1.541,8.77 L1.869,8.77 L2.197,8.758 L2.525,8.736 L2.852,8.703 L3.178,8.66 L3.504,8.607 L3.829,8.545 L4.153,8.475 L4.477,8.397 L4.963,8.265 L5.608,8.065 L6.252,7.842 L6.895,7.599 L7.357,7.413 L7.723,6.41 L8.024,5.594 L8.323,4.786 L8.62,3.989 L8.693,3.793 L8.496,3.819 L7.751,3.91 L7.198,3.967 L6.833,3.999 L6.47,4.026 L6.111,4.048 L5.755,4.063 L5.402,4.072 L5.052,4.073 L4.707,4.065 L4.366,4.05 L4.029,4.025 L3.696,3.991 L3.369,3.947 L3.046,3.892 L2.728,3.826 L2.415,3.748 L2.108,3.657 L1.807,3.554 L1.511,3.438 L1.222,3.307 L0.939,3.162 L0.662,3.002 L0.393,2.827 L0.13,2.635 L-0.126,2.426 L-0.374,2.201 L-0.615,1.957 L-0.732,1.828 C-0.735,1.825 -0.728,1.812 -0.716,1.799 C-0.704,1.785 -0.692,1.777 -0.689,1.781 L-0.568,1.906 L-0.321,2.142 L-0.067,2.36 L0.195,2.562 L0.463,2.746 L0.739,2.915 L1.021,3.069 L1.309,3.207 L1.603,3.331 L1.904,3.441 L2.21,3.537 L2.522,3.621 L2.84,3.692 L3.162,3.752 L3.49,3.8 L3.822,3.838 L4.159,3.865 L4.501,3.883 L4.847,3.892 L5.196,3.893 L5.55,3.886 L5.907,3.871 L6.268,3.849 L6.632,3.821 L6.999,3.788 L7.368,3.748 L7.928,3.681 L8.682,3.579 L8.778,3.565 L8.912,3.203 L9.199,2.43 L9.339,2.049 C9.419,1.841 9.678,1.61 9.918,1.533 C10.098,1.475 10.216,1.521 10.229,1.635 C10.242,1.633 10.25,1.637 10.253,1.647 L10.448,2.209 L10.804,3.251 L10.984,3.223 L11.759,3.102 L12.535,2.988 L13.311,2.885 L14.085,2.797 L14.856,2.728 L15.431,2.692 L15.812,2.677 L16.191,2.669 L16.568,2.669 L16.941,2.68 L17.311,2.699 L17.679,2.728 L18.044,2.767 L18.406,2.817 L18.764,2.878 L19.119,2.951 L19.471,3.036 L19.818,3.134 L20.161,3.245 L20.5,3.37 L20.835,3.509 L21.165,3.663 L21.489,3.833 L21.65,3.925 L21.753,3.987 L21.96,4.124 L22.167,4.278 L22.373,4.447 L22.577,4.631 L22.778,4.828 L22.974,5.037 L23.163,5.258 L23.346,5.488 L23.519,5.728 L23.683,5.975 L23.836,6.23 L23.976,6.49 L24.102,6.755 L24.213,7.023 L24.308,7.295 L24.386,7.567 L24.445,7.841 L24.483,8.113 L24.5,8.385 L24.498,8.587 L24.489,8.721 L24.474,8.855 L24.453,8.987 L24.425,9.119 L24.39,9.251 L24.347,9.381 L24.297,9.512 L24.239,9.642 L24.171,9.774 L24.093,9.907 L24.003,10.043 L23.901,10.18 L23.786,10.319 L23.66,10.456 L23.526,10.586 L23.387,10.708 L23.244,10.821 L23.097,10.926 L22.944,11.024 L22.785,11.117 L22.619,11.204 L22.445,11.286 L22.263,11.363 L22.167,11.401 C22.167,11.401 22.167,11.401 22.166,11.401 L21.876,11.508 L21.298,11.706 L20.724,11.889 L20.262,12.033 L20.28,12.194 L20.384,13.091 L20.473,13.98 L20.534,14.862 L20.573,15.314 C20.573,15.319 20.569,15.32 20.563,15.319 L20.69,15.481 L20.84,15.677 L20.992,15.878 L21.224,16.188 L21.539,16.613 L21.862,17.042 L22.191,17.462 L22.442,17.767 L22.61,17.963 L22.78,18.151 L22.951,18.331 L23.037,18.418 C23.043,18.424 23.053,18.446 23.059,18.466 C23.064,18.486 23.063,18.496 23.057,18.49 L22.972,18.409 L22.804,18.239 L22.636,18.061 L22.47,17.876 L22.223,17.589 L21.898,17.193 L21.582,16.795 L21.273,16.4 L21.046,16.113 L20.899,15.928 L20.754,15.751 L20.613,15.582 L20.543,15.501 C20.512,15.463 20.47,15.366 20.449,15.283 C20.445,15.264 20.442,15.248 20.44,15.234 C20.44,15.234 20.439,15.233 20.439,15.232 L20.398,14.779 L20.275,13.859 L20.159,12.953 L20.06,12.097 L19.609,12.242 L19.205,12.383 L18.94,12.481 L18.681,12.585 L18.426,12.695 L18.177,12.813 L17.934,12.94 L17.877,12.972 C17.564,13.541 17.028,14.095 16.835,14.244 C16.147,14.774 16.374,13.807 16.092,13.481 C15.966,13.336 15.568,14.046 15.316,13.901 C14.742,13.569 15.227,13.182 15.084,13.1 C14.85,12.964 14.781,13.382 14.556,13.252 C14.397,13.16 14.494,12.872 14.341,12.814 C14.03,12.694 13.78,13.681 13.532,13.824 C13.131,14.056 12.721,13.557 12.492,13.424 C12.26,13.29 11.612,13.885 11.451,13.92 C11.405,13.93 11.359,13.94 11.313,13.949 L11.19,14.335 L11.046,14.823 L10.979,15.068 C10.978,15.072 10.974,15.075 10.967,15.077 C10.964,15.081 10.957,15.085 10.945,15.089 L10.71,15.153 L10.239,15.275 L9.767,15.39 L9.29,15.498 L8.805,15.596 L8.311,15.686 L7.573,15.81 L7.083,15.886 C7.063,15.889 7.031,15.886 7.013,15.879 C6.994,15.871 6.995,15.863 7.015,15.859 L7.485,15.776 L8.183,15.638 L8.643,15.539 L9.109,15.436 L9.58,15.328 L10.052,15.215 L10.522,15.094 L10.757,15.032 C10.778,15.026 10.81,15.024 10.842,15.027 L10.9,14.807 L11.035,14.317 L11.133,13.986 C10.386,14.131 9.631,14.219 9.379,14.073 L9.379,14.06 C9.684,13.778 9.631,13.755 10.526,13.329 C10.898,13.151 10.91,12.137 11.104,11.688 C11.277,11.289 11.713,10.963 12.19,10.718 L12.175,10.633 L12.055,10.04 L11.925,9.446 L11.785,8.854 L11.637,8.262 L11.481,7.671 L11.317,7.082 L11.148,6.495 L11.016,6.054 L10.215,6.388 L8.947,6.933 L7.995,7.337 L7.965,7.349 L7.934,7.426 L7.445,8.68 L7.124,9.518 L6.81,10.355 L6.504,11.19 L6.207,12.022 L5.922,12.848 L5.649,13.666 L5.39,14.477 L5.266,14.879 C5.246,14.948 5.175,15.028 5.093,15.08 C5.017,15.169 4.929,15.25 4.85,15.298 L4.737,15.363 L4.521,15.476 L4.305,15.579 L4.087,15.674 L3.762,15.801 L3.329,15.952 L2.896,16.089 L2.469,16.22 L2.05,16.353 L1.745,16.46 L1.546,16.535 L1.447,16.574 C1.417,16.588 1.411,16.567 1.435,16.527 C1.459,16.487 1.503,16.443 1.533,16.429 L1.64,16.376 L1.858,16.271 L2.195,16.12 L2.655,15.926 L3.123,15.734 L3.591,15.538 L4.054,15.33 L4.392,15.164 L4.609,15.048 L4.821,14.927 z M19.923,10.779 L19.88,10.828 L19.612,11.104 L19.335,11.367 L19.049,11.614 L18.757,11.844 L18.46,12.056 L18.159,12.25 L18.11,12.279 C18.102,12.44 18.048,12.616 17.967,12.794 L18.06,12.741 L18.312,12.608 L18.569,12.484 L18.83,12.369 L19.095,12.26 L19.365,12.157 L19.775,12.011 L20.04,11.922 L19.959,11.16 z M19.784,8.49 C19.771,8.507 19.758,8.523 19.744,8.538 L19.635,8.664 L19.426,8.914 L19.215,9.177 L18.996,9.455 L18.772,9.746 L18.542,10.049 L18.306,10.361 L18.065,10.681 L17.695,11.171 L17.508,11.414 C17.692,11.553 17.85,11.697 17.974,11.841 C18.054,11.932 18.095,12.04 18.108,12.157 C18.111,12.155 18.114,12.153 18.117,12.151 L18.261,12.065 L18.546,11.879 L18.823,11.68 L19.089,11.469 L19.343,11.248 L19.585,11.018 L19.814,10.781 L19.912,10.669 L19.895,10.484 L19.858,10.032 L19.828,9.577 L19.803,9.12 L19.787,8.66 z M20.242,11.856 L20.333,11.825 L20.901,11.643 L21.476,11.455 L22.056,11.252 L22.347,11.142 L22.438,11.105 L22.613,11.03 L22.778,10.951 L22.933,10.869 L23.076,10.785 L23.208,10.701 L23.327,10.616 L23.434,10.532 L23.527,10.452 L23.609,10.373 L23.683,10.296 L23.751,10.215 L23.817,10.128 L23.88,10.034 L23.939,9.933 L23.994,9.826 L24.044,9.714 L24.088,9.598 L24.127,9.479 L24.159,9.357 L24.185,9.233 L24.204,9.107 L24.218,8.979 L24.226,8.85 L24.227,8.654 L24.208,8.389 L24.169,8.121 L24.109,7.853 L24.03,7.584 L23.934,7.317 L23.821,7.052 L23.693,6.791 L23.552,6.534 L23.398,6.283 L23.233,6.038 L23.059,5.801 L22.876,5.573 L22.685,5.355 L22.489,5.148 L22.288,4.954 L22.083,4.772 L21.877,4.605 L21.669,4.454 L21.462,4.319 L21.359,4.258 L21.199,4.168 L20.873,4.001 L20.544,3.848 L20.209,3.711 L19.871,3.588 L19.528,3.478 L19.181,3.382 L18.83,3.299 L18.475,3.228 L18.117,3.168 L17.756,3.119 L17.392,3.081 L17.025,3.052 L16.656,3.033 L16.284,3.023 L15.911,3.02 L15.537,3.023 L15.161,3.034 L14.595,3.062 L13.834,3.12 L13.07,3.197 L12.304,3.289 L11.536,3.392 L10.882,3.484 L11.216,4.493 L11.492,5.362 L11.564,5.597 L12.024,5.41 L12.668,5.163 L13.308,4.94 L13.95,4.74 L14.431,4.609 L14.753,4.53 L15.074,4.46 L15.395,4.398 L15.717,4.345 L16.039,4.302 L16.362,4.268 L16.685,4.245 L17.008,4.233 L17.331,4.233 L17.654,4.244 L17.978,4.268 L18.302,4.305 L18.626,4.355 L18.789,4.385 L18.904,4.409 L19.125,4.46 L19.337,4.517 L19.537,4.579 L19.728,4.647 L19.908,4.72 L20.079,4.797 L20.24,4.88 L20.391,4.967 L20.533,5.058 L20.665,5.154 L20.789,5.254 L20.903,5.357 L21.008,5.465 L21.105,5.576 L21.193,5.691 L21.273,5.809 L21.344,5.93 L21.408,6.054 L21.463,6.181 L21.511,6.311 L21.551,6.443 L21.583,6.578 L21.607,6.715 L21.625,6.855 L21.635,6.996 L21.638,7.139 L21.635,7.284 L21.624,7.43 L21.607,7.578 L21.57,7.801 L21.499,8.102 L21.403,8.407 L21.284,8.714 L21.143,9.021 L20.981,9.33 L20.798,9.637 L20.595,9.942 L20.373,10.244 L20.134,10.54 L20.107,10.57 L20.112,10.617 L20.179,11.295 z M22.347,11.142 L22.347,11.142 L22.348,11.141 z M13.39,7.27 C13.426,7.255 13.491,7.249 13.569,7.254 C13.692,7.262 13.799,7.298 13.809,7.333 L13.881,7.641 L14.039,8.267 L14.212,8.905 L14.39,9.549 L14.546,10.197 L14.549,10.213 C15.402,10.321 16.366,10.686 17.1,11.137 L17.357,10.822 L17.736,10.349 L17.987,10.034 L18.236,9.722 L18.484,9.415 L18.729,9.115 L18.973,8.823 L19.214,8.54 L19.45,8.274 L19.56,8.154 C19.635,8.069 19.712,8.01 19.779,7.981 L19.779,7.964 C19.779,7.953 19.796,7.955 19.822,7.965 C19.881,7.95 19.927,7.964 19.95,8.011 C19.957,8.026 19.961,8.043 19.963,8.062 C19.973,8.073 19.979,8.082 19.979,8.088 L19.981,8.322 L19.992,8.786 L20.011,9.248 L20.038,9.707 L20.072,10.163 L20.097,10.453 L20.235,10.282 L20.428,10.019 L20.607,9.749 L20.771,9.472 L20.919,9.189 L21.049,8.902 L21.159,8.613 L21.248,8.324 L21.315,8.034 L21.349,7.819 L21.365,7.676 L21.374,7.535 L21.376,7.395 L21.371,7.256 L21.36,7.119 L21.342,6.984 L21.316,6.85 L21.283,6.719 L21.243,6.59 L21.195,6.463 L21.14,6.339 L21.076,6.217 L21.005,6.099 L20.925,5.983 L20.836,5.871 L20.74,5.762 L20.634,5.657 L20.519,5.556 L20.396,5.458 L20.263,5.365 L20.121,5.276 L19.97,5.191 L19.809,5.111 L19.638,5.035 L19.457,4.965 L19.267,4.899 L19.066,4.839 L18.855,4.784 L18.633,4.734 L18.518,4.712 L18.356,4.683 L18.031,4.635 L17.707,4.601 L17.384,4.58 L17.06,4.57 L16.738,4.573 L16.416,4.587 L16.095,4.611 L15.774,4.645 L15.454,4.69 L15.134,4.744 L14.814,4.806 L14.495,4.877 L14.176,4.956 L13.699,5.088 L13.063,5.286 L12.427,5.507 L11.795,5.742 L11.629,5.808 L11.671,5.944 L11.844,6.528 L12.011,7.114 L12.171,7.702 L12.323,8.29 L12.466,8.88 L12.6,9.471 L12.618,9.56 L12.812,8.995 L12.968,8.512 L13.116,8.027 L13.254,7.542 L13.319,7.298 C13.323,7.284 13.35,7.274 13.39,7.27 z M13.516,7.831 L13.446,8.065 L13.291,8.549 L13.129,9.032 L12.874,9.755 L12.736,10.128 L12.797,10.452 C13.059,10.355 13.306,10.284 13.499,10.239 C13.67,10.199 13.857,10.181 14.055,10.18 L14.051,10.161 L13.914,9.515 L13.78,8.874 L13.628,8.239 z M8.055,7.122 L8.178,7.07 L9.139,6.65 L10.42,6.084 L10.956,5.854 L10.702,5.036 L10.328,3.881 L10.228,3.579 L10.008,3.611 L9.432,3.692 L9.415,3.735 L9.088,4.541 L8.759,5.357 L8.429,6.18 z M18.518,4.712 L18.518,4.712 L18.518,4.712 z M21.359,4.258 L21.359,4.258 L21.359,4.258 z M9.736,2.939 L9.529,3.452 L10.153,3.354 L9.948,2.738 L9.888,2.562 z" fill="#20BE86" id="Layer_1"/>
  </g>
</svg>
