<?xml version="1.0" encoding="UTF-8"?>
<!DOCTYPE svg PUBLIC "-//W3C//DTD SVG 1.1//EN" "http://www.w3.org/Graphics/SVG/1.1/DTD/svg11.dtd">
<svg version="1.1" xmlns="http://www.w3.org/2000/svg" xmlns:xlink="http://www.w3.org/1999/xlink" x="0" y="0" width="165" height="50" viewBox="0, 0, 165, 50">
  <g id="Layer_1">
    <text transform="matrix(1, 0, 0, 1, 116.329, 27.236)">
      <tspan x="-48.671" y="5.5" font-family="Helvetica" font-size="16" fill="#1FBE86">CFG Analysis</tspan>
    </text>
    <path d="M16.789,39.068 L16.945,38.483 L17.505,36.466 L18.098,34.425 L18.721,32.367 L19.371,30.294 L20.044,28.213 L20.735,26.126 L21.441,24.038 L22.521,20.915 L22.536,20.873 L21.187,21.416 L19.639,21.998 L18.088,22.528 L16.536,22.998 L15.37,23.305 L14.592,23.486 L13.812,23.646 L13.032,23.785 L12.251,23.899 L11.469,23.99 L10.686,24.055 L9.902,24.094 L9.117,24.104 L8.331,24.086 L7.544,24.037 L6.756,23.956 L5.966,23.842 L5.176,23.694 L4.384,23.511 L3.59,23.291 L2.796,23.033 L2,22.736 L1.202,22.399 L0.403,22.02 L0.003,21.814 C-0.007,21.809 0.008,21.778 0.036,21.744 C0.064,21.711 0.095,21.688 0.105,21.693 L0.515,21.886 L1.333,22.242 L2.149,22.556 L2.962,22.831 L3.773,23.067 L4.582,23.266 L5.389,23.429 L6.195,23.556 L6.998,23.651 L7.8,23.712 L8.6,23.742 L9.398,23.742 L10.195,23.713 L10.99,23.657 L11.784,23.573 L12.576,23.465 L13.367,23.332 L14.157,23.177 L14.945,23.001 L15.732,22.804 L16.911,22.473 L18.479,21.971 L20.044,21.411 L21.604,20.801 L22.726,20.334 L23.615,17.812 L24.346,15.762 L25.073,13.734 L25.794,11.73 L25.97,11.238 L25.493,11.304 L23.683,11.531 L22.34,11.674 L21.453,11.756 L20.572,11.824 L19.7,11.878 L18.834,11.917 L17.977,11.938 L17.129,11.94 L16.29,11.922 L15.462,11.883 L14.643,11.821 L13.835,11.735 L13.039,11.624 L12.255,11.486 L11.483,11.32 L10.723,11.124 L9.978,10.897 L9.246,10.637 L8.528,10.345 L7.825,10.017 L7.137,9.653 L6.466,9.251 L5.811,8.809 L5.173,8.328 L4.552,7.804 L3.949,7.236 L3.365,6.624 L3.08,6.301 C3.072,6.293 3.089,6.259 3.119,6.227 C3.148,6.194 3.177,6.173 3.184,6.181 L3.478,6.495 L4.078,7.089 L4.696,7.638 L5.331,8.144 L5.983,8.608 L6.652,9.032 L7.336,9.417 L8.036,9.765 L8.752,10.076 L9.482,10.352 L10.226,10.594 L10.984,10.804 L11.754,10.983 L12.538,11.134 L13.334,11.255 L14.141,11.35 L14.96,11.42 L15.79,11.465 L16.629,11.487 L17.479,11.489 L18.338,11.47 L19.205,11.433 L20.081,11.379 L20.965,11.309 L21.856,11.224 L22.754,11.126 L24.113,10.957 L25.945,10.7 L26.177,10.664 L26.503,9.755 L27.199,7.813 L27.54,6.857 C27.735,6.334 28.364,5.754 28.946,5.56 C29.383,5.415 29.669,5.529 29.703,5.816 C29.733,5.812 29.753,5.821 29.761,5.845 L30.234,7.259 L31.097,9.876 L31.535,9.804 L33.418,9.502 L35.303,9.216 L37.188,8.956 L39.069,8.734 L40.941,8.562 L42.336,8.472 L43.262,8.433 L44.183,8.412 L45.098,8.414 L46.003,8.44 L46.903,8.489 L47.797,8.562 L48.683,8.66 L49.562,8.786 L50.432,8.939 L51.295,9.122 L52.148,9.336 L52.991,9.582 L53.825,9.861 L54.649,10.174 L55.461,10.524 L56.263,10.912 L57.051,11.339 L57.441,11.568 L57.691,11.724 L58.194,12.069 L58.697,12.456 L59.198,12.881 L59.694,13.343 L60.18,13.838 L60.656,14.364 L61.116,14.918 L61.559,15.497 L61.981,16.099 L62.379,16.721 L62.75,17.36 L63.09,18.014 L63.397,18.68 L63.667,19.354 L63.898,20.036 L64.087,20.721 L64.229,21.407 L64.323,22.093 L64.364,22.774 L64.359,23.283 L64.337,23.62 L64.301,23.956 L64.249,24.289 L64.18,24.62 L64.095,24.95 L63.992,25.278 L63.87,25.606 L63.728,25.934 L63.564,26.265 L63.375,26.599 L63.157,26.94 L62.908,27.286 L62.629,27.635 L62.322,27.979 L61.997,28.306 L61.66,28.612 L61.313,28.896 L60.955,29.16 L60.584,29.406 L60.198,29.638 L59.794,29.857 L59.372,30.063 L58.929,30.258 L58.698,30.352 C58.697,30.353 58.696,30.353 58.695,30.354 L57.991,30.622 L56.585,31.119 L55.193,31.578 L54.07,31.94 L54.114,32.346 L54.366,34.598 L54.581,36.833 L54.73,39.049 L54.825,40.184 C54.826,40.196 54.817,40.2 54.801,40.198 L55.11,40.605 L55.474,41.096 L55.844,41.602 L56.406,42.382 L57.172,43.448 L57.956,44.526 L58.755,45.582 L59.364,46.347 L59.773,46.839 L60.186,47.313 L60.601,47.765 L60.81,47.983 C60.826,48 60.85,48.054 60.863,48.103 C60.876,48.153 60.874,48.18 60.858,48.164 L60.653,47.959 L60.243,47.533 L59.836,47.086 L59.432,46.621 L58.832,45.899 L58.045,44.906 L57.275,43.906 L56.524,42.913 L55.975,42.191 L55.618,41.728 L55.266,41.282 L54.921,40.857 L54.753,40.654 C54.676,40.559 54.575,40.314 54.525,40.106 C54.514,40.06 54.506,40.019 54.502,39.985 C54.501,39.983 54.501,39.981 54.501,39.979 L54.4,38.839 L54.101,36.528 L53.82,34.253 L53.578,32.102 L52.484,32.467 L51.502,32.819 L50.86,33.066 L50.23,33.328 L49.611,33.605 L49.007,33.901 L48.417,34.219 L48.277,34.299 C47.518,35.73 46.217,37.122 45.746,37.496 C44.075,38.828 44.628,36.399 43.941,35.579 C43.637,35.215 42.669,36.999 42.056,36.634 C40.662,35.801 41.841,34.828 41.495,34.621 C40.926,34.281 40.758,35.331 40.211,35.004 C39.825,34.773 40.061,34.05 39.69,33.902 C38.934,33.601 38.327,36.082 37.724,36.442 C36.751,37.023 35.756,35.769 35.197,35.436 C34.636,35.1 33.062,36.594 32.67,36.681 C32.559,36.706 32.447,36.731 32.335,36.755 L32.036,37.723 L31.686,38.951 L31.524,39.567 C31.522,39.576 31.511,39.583 31.495,39.588 C31.487,39.6 31.469,39.61 31.44,39.618 L30.87,39.779 L29.727,40.087 L28.579,40.376 L27.421,40.646 L26.243,40.894 L25.042,41.119 L23.251,41.43 L22.061,41.621 C22.012,41.63 21.935,41.622 21.89,41.604 C21.844,41.585 21.847,41.563 21.896,41.555 L23.038,41.344 L24.733,41 L25.85,40.749 L26.982,40.49 L28.126,40.221 L29.272,39.935 L30.415,39.633 L30.984,39.475 C31.036,39.461 31.112,39.457 31.19,39.463 L31.331,38.91 L31.659,37.68 L31.896,36.847 C30.084,37.212 28.248,37.433 27.637,37.068 L27.637,37.033 C28.378,36.324 28.249,36.267 30.424,35.196 C31.327,34.751 31.357,32.201 31.828,31.075 C32.248,30.072 33.306,29.253 34.466,28.637 L34.428,28.424 L34.137,26.932 L33.821,25.441 L33.482,23.952 L33.122,22.466 L32.742,20.982 L32.345,19.502 L31.934,18.027 L31.613,16.919 L29.667,17.758 L26.589,19.127 L24.277,20.141 L24.202,20.173 L24.128,20.366 L22.94,23.517 L22.161,25.622 L21.398,27.726 L20.655,29.824 L19.934,31.912 L19.24,33.987 L18.577,36.044 L17.948,38.08 L17.647,39.091 C17.598,39.265 17.426,39.466 17.228,39.597 C17.043,39.82 16.828,40.023 16.637,40.145 L16.362,40.307 L15.837,40.593 L15.313,40.851 L14.785,41.089 L13.995,41.409 L12.942,41.787 L11.892,42.131 L10.854,42.461 L9.837,42.796 L9.095,43.063 L8.612,43.252 L8.373,43.351 C8.299,43.386 8.286,43.332 8.343,43.232 C8.4,43.131 8.507,43.021 8.581,42.986 L8.84,42.853 L9.371,42.59 L10.188,42.211 L11.306,41.723 L12.442,41.24 L13.58,40.746 L14.704,40.224 L15.524,39.808 L16.051,39.517 L16.566,39.212 z M53.246,28.789 L53.141,28.912 L52.492,29.607 L51.818,30.267 L51.124,30.888 L50.415,31.466 L49.694,31.999 L48.963,32.486 L48.844,32.559 C48.823,32.964 48.693,33.405 48.495,33.853 L48.721,33.72 L49.334,33.386 L49.957,33.074 L50.592,32.784 L51.236,32.511 L51.891,32.252 L52.888,31.884 L53.532,31.663 L53.333,29.747 z M52.909,23.04 C52.878,23.081 52.845,23.121 52.812,23.16 L52.548,23.476 L52.04,24.105 L51.526,24.766 L50.996,25.464 L50.451,26.195 L49.892,26.955 L49.32,27.739 L48.735,28.543 L47.836,29.774 L47.381,30.386 C47.827,30.736 48.212,31.097 48.514,31.458 C48.706,31.688 48.808,31.957 48.838,32.253 C48.845,32.248 48.853,32.243 48.86,32.238 L49.21,32.022 L49.903,31.555 L50.574,31.054 L51.22,30.524 L51.838,29.968 L52.425,29.392 L52.981,28.795 L53.221,28.514 L53.179,28.049 L53.09,26.912 L53.015,25.77 L52.956,24.621 L52.916,23.466 z M54.021,31.495 L54.243,31.419 L55.622,30.961 L57.019,30.488 L58.428,29.977 L59.134,29.701 L59.354,29.61 L59.781,29.42 L60.182,29.221 L60.557,29.017 L60.905,28.806 L61.224,28.593 L61.514,28.38 L61.773,28.17 L62,27.967 L62.2,27.771 L62.378,27.576 L62.544,27.373 L62.703,27.155 L62.856,26.919 L63.001,26.665 L63.135,26.396 L63.256,26.115 L63.364,25.824 L63.457,25.524 L63.534,25.218 L63.597,24.906 L63.646,24.589 L63.679,24.268 L63.698,23.943 L63.7,23.451 L63.655,22.785 L63.558,22.113 L63.413,21.438 L63.222,20.763 L62.988,20.092 L62.714,19.426 L62.404,18.77 L62.061,18.124 L61.687,17.493 L61.287,16.878 L60.863,16.283 L60.418,15.71 L59.956,15.163 L59.479,14.642 L58.99,14.154 L58.494,13.698 L57.992,13.278 L57.488,12.898 L56.985,12.559 L56.735,12.405 L56.345,12.18 L55.555,11.76 L54.755,11.377 L53.942,11.031 L53.12,10.722 L52.287,10.447 L51.444,10.205 L50.592,9.996 L49.73,9.817 L48.861,9.667 L47.984,9.545 L47.1,9.448 L46.209,9.377 L45.312,9.329 L44.409,9.303 L43.503,9.294 L42.595,9.303 L41.682,9.33 L40.305,9.401 L38.458,9.546 L36.602,9.74 L34.741,9.971 L32.877,10.229 L31.287,10.462 L32.098,12.997 L32.77,15.18 L32.945,15.77 L34.063,15.299 L35.625,14.679 L37.181,14.119 L38.738,13.618 L39.908,13.287 L40.689,13.09 L41.469,12.914 L42.25,12.758 L43.032,12.625 L43.814,12.516 L44.597,12.431 L45.381,12.373 L46.166,12.343 L46.95,12.342 L47.736,12.371 L48.522,12.431 L49.309,12.523 L50.097,12.649 L50.493,12.725 L50.771,12.785 L51.309,12.914 L51.822,13.057 L52.31,13.213 L52.773,13.383 L53.211,13.566 L53.625,13.761 L54.016,13.968 L54.383,14.186 L54.728,14.416 L55.049,14.656 L55.349,14.907 L55.627,15.168 L55.883,15.438 L56.118,15.717 L56.332,16.005 L56.526,16.302 L56.699,16.606 L56.853,16.919 L56.987,17.237 L57.103,17.564 L57.2,17.896 L57.277,18.235 L57.337,18.58 L57.38,18.93 L57.405,19.285 L57.413,19.644 L57.404,20.008 L57.379,20.376 L57.338,20.747 L57.247,21.307 L57.073,22.064 L56.841,22.83 L56.553,23.601 L56.211,24.374 L55.816,25.149 L55.372,25.92 L54.879,26.687 L54.34,27.445 L53.76,28.189 L53.695,28.265 L53.705,28.382 L53.869,30.086 z M59.134,29.701 L59.133,29.701 L59.137,29.7 z M37.38,19.973 C37.466,19.937 37.625,19.92 37.814,19.933 C38.113,19.955 38.374,20.043 38.396,20.131 L38.572,20.906 L38.956,22.479 L39.376,24.081 L39.809,25.7 L40.188,27.328 L40.195,27.368 C42.266,27.639 44.608,28.556 46.391,29.689 L47.013,28.899 L47.935,27.708 L48.545,26.918 L49.15,26.135 L49.751,25.364 L50.347,24.609 L50.939,23.875 L51.526,23.165 L52.098,22.497 L52.366,22.194 C52.548,21.982 52.735,21.834 52.896,21.76 L52.896,21.717 C52.896,21.691 52.938,21.694 53.002,21.721 C53.145,21.683 53.257,21.717 53.312,21.835 C53.329,21.872 53.339,21.915 53.343,21.963 C53.367,21.991 53.382,22.014 53.382,22.03 L53.387,22.616 L53.413,23.784 L53.461,24.943 L53.527,26.095 L53.609,27.242 L53.67,27.971 L54.006,27.54 L54.473,26.881 L54.907,26.202 L55.306,25.506 L55.665,24.795 L55.98,24.075 L56.248,23.349 L56.465,22.621 L56.628,21.894 L56.711,21.352 L56.748,20.995 L56.77,20.64 L56.775,20.288 L56.764,19.939 L56.737,19.595 L56.692,19.255 L56.631,18.919 L56.551,18.589 L56.453,18.265 L56.337,17.946 L56.202,17.633 L56.048,17.329 L55.874,17.03 L55.68,16.74 L55.465,16.458 L55.23,16.185 L54.973,15.921 L54.695,15.666 L54.395,15.421 L54.073,15.186 L53.729,14.963 L53.361,14.75 L52.97,14.548 L52.555,14.359 L52.116,14.182 L51.653,14.017 L51.165,13.865 L50.652,13.727 L50.113,13.603 L49.834,13.546 L49.44,13.473 L48.652,13.354 L47.865,13.268 L47.079,13.214 L46.294,13.191 L45.511,13.197 L44.73,13.232 L43.95,13.292 L43.17,13.379 L42.392,13.491 L41.615,13.626 L40.839,13.783 L40.063,13.961 L39.289,14.159 L38.129,14.49 L36.584,14.989 L35.041,15.543 L33.506,16.135 L33.102,16.3 L33.204,16.642 L33.624,18.109 L34.03,19.582 L34.418,21.058 L34.787,22.537 L35.135,24.019 L35.46,25.503 L35.505,25.728 L35.975,24.307 L36.355,23.094 L36.714,21.877 L37.05,20.656 L37.207,20.045 C37.217,20.009 37.283,19.984 37.38,19.973 z M37.685,21.384 L37.515,21.97 L37.139,23.187 L36.745,24.4 L36.127,26.216 L35.79,27.155 L35.94,27.97 C36.576,27.725 37.175,27.545 37.644,27.433 C38.058,27.334 38.513,27.287 38.994,27.286 L38.985,27.238 L38.652,25.615 L38.327,24.004 L37.957,22.407 z M24.422,19.602 L24.72,19.471 L27.054,18.416 L30.166,16.993 L31.466,16.417 L30.85,14.361 L29.943,11.459 L29.699,10.699 L29.164,10.779 L27.765,10.985 L27.724,11.091 L26.932,13.117 L26.132,15.167 L25.33,17.235 z M49.834,13.546 L49.834,13.546 L49.834,13.546 z M56.735,12.405 L56.735,12.405 L56.735,12.405 z M28.505,9.093 L28.001,10.381 L29.517,10.135 L29.019,8.588 L28.874,8.145 z" fill="#20BE86" id="Layer_1"/>
  </g>
</svg>
