<?xml version="1.0" encoding="UTF-8"?>
<!DOCTYPE svg PUBLIC "-//W3C//DTD SVG 1.1//EN" "http://www.w3.org/Graphics/SVG/1.1/DTD/svg11.dtd">
<svg version="1.1" xmlns="http://www.w3.org/2000/svg" xmlns:xlink="http://www.w3.org/1999/xlink" x="0" y="0" width="141" height="50" viewBox="0, 0, 141, 50">
  <g id="Layer_1">
    <text transform="matrix(1, 0, 0, 1, 95.962, 29.779)">
      <tspan x="-46.171" y="4.904" font-family="Helvetica" font-size="15" fill="#1FBE86">CFG Analysis</tspan>
    </text>
    <path d="M7.95,40.259 L8.084,39.759 L8.563,38.031 L9.071,36.283 L9.604,34.519 L10.16,32.744 L10.736,30.961 L11.327,29.173 L11.931,27.385 L12.855,24.709 L12.868,24.674 L11.714,25.139 L10.389,25.637 L9.062,26.091 L7.734,26.494 L6.736,26.757 L6.07,26.912 L5.403,27.049 L4.735,27.168 L4.067,27.266 L3.398,27.344 L2.728,27.4 L2.058,27.433 L1.386,27.442 L0.714,27.426 L0.04,27.384 L-0.634,27.314 L-1.31,27.217 L-1.986,27.091 L-2.664,26.933 L-3.343,26.745 L-4.023,26.524 L-4.704,26.27 L-5.386,25.981 L-6.07,25.656 L-6.412,25.48 C-6.421,25.476 -6.408,25.449 -6.384,25.42 C-6.36,25.391 -6.333,25.372 -6.325,25.376 L-5.974,25.542 L-5.274,25.846 L-4.576,26.115 L-3.88,26.351 L-3.187,26.553 L-2.494,26.724 L-1.804,26.863 L-1.114,26.972 L-0.427,27.053 L0.259,27.105 L0.944,27.131 L1.626,27.131 L2.308,27.106 L2.989,27.058 L3.668,26.987 L4.346,26.894 L5.023,26.78 L5.698,26.647 L6.372,26.496 L7.046,26.328 L8.055,26.044 L9.397,25.615 L10.735,25.135 L12.071,24.612 L13.03,24.212 L13.791,22.052 L14.417,20.296 L15.039,18.558 L15.655,16.842 L15.806,16.42 L15.398,16.477 L13.849,16.671 L12.7,16.794 L11.941,16.864 L11.188,16.923 L10.441,16.969 L9.7,17.002 L8.967,17.02 L8.241,17.022 L7.524,17.006 L6.815,16.973 L6.114,16.92 L5.423,16.846 L4.742,16.751 L4.071,16.633 L3.41,16.49 L2.76,16.323 L2.123,16.128 L1.496,15.906 L0.882,15.656 L0.281,15.375 L-0.308,15.063 L-0.882,14.718 L-1.443,14.34 L-1.989,13.927 L-2.52,13.479 L-3.036,12.993 L-3.536,12.468 L-3.78,12.192 C-3.786,12.184 -3.771,12.156 -3.747,12.128 C-3.722,12.099 -3.696,12.082 -3.69,12.089 L-3.439,12.358 L-2.926,12.866 L-2.397,13.337 L-1.854,13.77 L-1.296,14.168 L-0.724,14.531 L-0.138,14.861 L0.461,15.158 L1.074,15.425 L1.698,15.661 L2.335,15.869 L2.983,16.049 L3.643,16.202 L4.313,16.331 L4.994,16.435 L5.685,16.516 L6.386,16.576 L7.095,16.615 L7.814,16.634 L8.541,16.635 L9.276,16.619 L10.018,16.588 L10.767,16.541 L11.524,16.481 L12.286,16.408 L13.054,16.324 L14.217,16.18 L15.784,15.959 L15.983,15.929 L16.262,15.15 L16.858,13.487 L17.149,12.667 C17.316,12.22 17.855,11.723 18.353,11.557 C18.727,11.432 18.971,11.53 19,11.776 C19.026,11.772 19.043,11.78 19.05,11.801 L19.454,13.012 L20.193,15.254 L20.568,15.192 L22.179,14.933 L23.792,14.688 L25.405,14.466 L27.014,14.276 L28.615,14.128 L29.809,14.051 L30.602,14.018 L31.39,14 L32.172,14.001 L32.947,14.024 L33.717,14.066 L34.482,14.128 L35.241,14.212 L35.992,14.32 L36.737,14.451 L37.475,14.608 L38.205,14.791 L38.927,15.001 L39.64,15.241 L40.345,15.509 L41.04,15.809 L41.726,16.141 L42.401,16.507 L42.734,16.703 L42.948,16.837 L43.378,17.132 L43.809,17.463 L44.237,17.828 L44.661,18.224 L45.078,18.647 L45.485,19.098 L45.879,19.572 L46.258,20.068 L46.619,20.584 L46.959,21.117 L47.276,21.665 L47.567,22.225 L47.83,22.795 L48.061,23.373 L48.259,23.957 L48.42,24.544 L48.542,25.131 L48.622,25.719 L48.658,26.302 L48.653,26.738 L48.635,27.027 L48.603,27.314 L48.559,27.6 L48.5,27.883 L48.428,28.166 L48.339,28.447 L48.235,28.728 L48.114,29.009 L47.973,29.292 L47.811,29.579 L47.625,29.871 L47.412,30.167 L47.173,30.466 L46.91,30.761 L46.632,31.041 L46.344,31.303 L46.047,31.546 L45.74,31.772 L45.423,31.983 L45.093,32.182 L44.747,32.369 L44.386,32.546 L44.007,32.713 L43.81,32.793 C43.809,32.794 43.808,32.794 43.807,32.795 L43.204,33.025 L42.002,33.451 L40.811,33.844 L39.849,34.154 L39.887,34.501 L40.103,36.431 L40.287,38.345 L40.414,40.243 L40.495,41.216 C40.496,41.226 40.489,41.229 40.475,41.228 L40.739,41.576 L41.051,41.997 L41.367,42.43 L41.848,43.098 L42.503,44.012 L43.175,44.935 L43.858,45.84 L44.379,46.495 L44.729,46.916 L45.082,47.322 L45.438,47.71 L45.616,47.897 C45.63,47.911 45.651,47.957 45.662,47.999 C45.673,48.042 45.671,48.065 45.657,48.051 L45.482,47.876 L45.132,47.511 L44.783,47.128 L44.437,46.73 L43.924,46.112 L43.25,45.261 L42.592,44.404 L41.95,43.553 L41.48,42.935 L41.174,42.538 L40.873,42.156 L40.578,41.792 L40.434,41.618 C40.368,41.537 40.281,41.327 40.239,41.149 C40.229,41.109 40.223,41.074 40.219,41.045 C40.219,41.043 40.218,41.042 40.218,41.04 L40.132,40.064 L39.876,38.084 L39.636,36.135 L39.429,34.292 L38.492,34.605 L37.652,34.907 L37.103,35.119 L36.563,35.343 L36.035,35.58 L35.517,35.834 L35.012,36.106 L34.893,36.175 C34.244,37.4 33.13,38.593 32.727,38.913 C31.297,40.054 31.77,37.974 31.183,37.271 C30.923,36.959 30.094,38.487 29.57,38.174 C28.377,37.461 29.386,36.627 29.09,36.45 C28.603,36.159 28.46,37.059 27.991,36.779 C27.661,36.581 27.862,35.961 27.545,35.834 C26.899,35.577 26.379,37.702 25.863,38.01 C25.031,38.508 24.179,37.434 23.701,37.148 C23.221,36.861 21.874,38.14 21.539,38.215 C21.444,38.237 21.348,38.258 21.252,38.278 L20.996,39.108 L20.697,40.159 L20.558,40.687 C20.556,40.694 20.548,40.701 20.534,40.705 C20.527,40.715 20.511,40.724 20.487,40.731 L19.999,40.869 L19.021,41.133 L18.038,41.38 L17.047,41.612 L16.039,41.824 L15.012,42.016 L13.48,42.283 L12.462,42.447 C12.42,42.454 12.354,42.447 12.315,42.432 C12.276,42.416 12.279,42.397 12.32,42.39 L13.297,42.209 L14.748,41.914 L15.703,41.7 L16.672,41.478 L17.651,41.247 L18.631,41.003 L19.609,40.744 L20.096,40.609 C20.141,40.596 20.206,40.593 20.273,40.598 L20.393,40.125 L20.674,39.07 L20.877,38.357 C19.326,38.67 17.755,38.859 17.233,38.546 L17.233,38.516 C17.867,37.909 17.756,37.861 19.617,36.943 C20.39,36.562 20.415,34.377 20.819,33.413 C21.178,32.554 22.083,31.852 23.075,31.324 L23.043,31.142 L22.794,29.864 L22.524,28.587 L22.234,27.312 L21.925,26.038 L21.601,24.767 L21.261,23.5 L20.909,22.236 L20.635,21.286 L18.969,22.005 L16.336,23.178 L14.358,24.047 L14.293,24.074 L14.23,24.239 L13.213,26.939 L12.547,28.742 L11.894,30.544 L11.258,32.341 L10.642,34.13 L10.048,35.908 L9.481,37.669 L8.942,39.414 L8.685,40.279 C8.643,40.429 8.496,40.601 8.326,40.713 C8.168,40.904 7.984,41.078 7.82,41.182 L7.585,41.321 L7.136,41.566 L6.688,41.787 L6.236,41.991 L5.56,42.265 L4.659,42.588 L3.761,42.883 L2.872,43.166 L2.002,43.453 L1.367,43.682 L0.954,43.843 L0.75,43.929 C0.686,43.959 0.675,43.913 0.724,43.826 C0.773,43.74 0.864,43.646 0.927,43.616 L1.149,43.502 L1.603,43.276 L2.302,42.952 L3.259,42.534 L4.231,42.121 L5.205,41.697 L6.167,41.25 L6.868,40.893 L7.319,40.644 L7.759,40.383 z M39.145,31.455 L39.055,31.56 L38.499,32.156 L37.922,32.721 L37.329,33.253 L36.722,33.748 L36.106,34.205 L35.48,34.622 L35.378,34.684 C35.36,35.031 35.249,35.409 35.079,35.793 L35.273,35.679 L35.797,35.392 L36.331,35.125 L36.873,34.877 L37.425,34.643 L37.985,34.421 L38.838,34.106 L39.389,33.916 L39.219,32.276 z M38.856,26.53 C38.829,26.565 38.802,26.6 38.773,26.633 L38.547,26.904 L38.113,27.443 L37.673,28.008 L37.219,28.606 L36.753,29.233 L36.275,29.884 L35.785,30.555 L35.285,31.244 L34.515,32.299 L34.126,32.822 C34.508,33.122 34.837,33.432 35.096,33.741 C35.26,33.938 35.347,34.169 35.372,34.422 C35.379,34.418 35.386,34.413 35.392,34.409 L35.691,34.224 L36.284,33.824 L36.858,33.395 L37.411,32.94 L37.939,32.465 L38.442,31.971 L38.918,31.46 L39.123,31.219 L39.087,30.821 L39.011,29.847 L38.947,28.868 L38.897,27.885 L38.862,26.895 z M39.808,33.773 L39.997,33.707 L41.178,33.315 L42.373,32.91 L43.578,32.473 L44.182,32.236 L44.371,32.158 L44.736,31.995 L45.079,31.825 L45.4,31.65 L45.698,31.47 L45.971,31.287 L46.219,31.104 L46.441,30.925 L46.635,30.751 L46.806,30.582 L46.958,30.415 L47.1,30.242 L47.237,30.055 L47.367,29.853 L47.491,29.635 L47.606,29.405 L47.71,29.164 L47.801,28.915 L47.881,28.658 L47.948,28.396 L48.002,28.128 L48.043,27.857 L48.071,27.582 L48.088,27.304 L48.089,26.882 L48.051,26.311 L47.968,25.736 L47.844,25.158 L47.68,24.58 L47.48,24.005 L47.246,23.435 L46.981,22.872 L46.687,22.319 L46.367,21.778 L46.025,21.252 L45.662,20.742 L45.281,20.251 L44.886,19.782 L44.477,19.337 L44.06,18.918 L43.635,18.528 L43.205,18.168 L42.774,17.842 L42.344,17.552 L42.13,17.42 L41.796,17.227 L41.12,16.867 L40.435,16.539 L39.74,16.243 L39.036,15.978 L38.324,15.743 L37.602,15.536 L36.873,15.357 L36.136,15.203 L35.392,15.075 L34.642,14.97 L33.885,14.887 L33.123,14.826 L32.356,14.785 L31.583,14.763 L30.808,14.755 L30.031,14.763 L29.25,14.786 L28.072,14.847 L26.491,14.971 L24.903,15.137 L23.311,15.335 L21.716,15.556 L20.356,15.756 L21.05,17.927 L21.624,19.797 L21.774,20.303 L22.73,19.899 L24.067,19.368 L25.398,18.888 L26.731,18.459 L27.732,18.176 L28.4,18.007 L29.068,17.856 L29.736,17.722 L30.405,17.608 L31.074,17.515 L31.744,17.443 L32.415,17.393 L33.086,17.367 L33.758,17.366 L34.429,17.391 L35.102,17.443 L35.776,17.521 L36.45,17.629 L36.789,17.695 L37.027,17.745 L37.487,17.856 L37.926,17.978 L38.343,18.112 L38.74,18.258 L39.115,18.414 L39.469,18.581 L39.803,18.759 L40.118,18.946 L40.412,19.143 L40.687,19.349 L40.944,19.563 L41.181,19.786 L41.401,20.018 L41.602,20.257 L41.785,20.504 L41.951,20.758 L42.099,21.019 L42.231,21.286 L42.346,21.56 L42.444,21.839 L42.527,22.124 L42.594,22.414 L42.645,22.709 L42.682,23.009 L42.703,23.313 L42.71,23.621 L42.702,23.933 L42.681,24.248 L42.646,24.566 L42.568,25.046 L42.419,25.694 L42.221,26.35 L41.974,27.01 L41.681,27.673 L41.344,28.336 L40.963,28.997 L40.542,29.654 L40.081,30.303 L39.584,30.941 L39.528,31.006 L39.537,31.106 L39.677,32.565 z M44.182,32.236 L44.182,32.236 L44.185,32.235 z M25.569,23.903 C25.642,23.872 25.778,23.857 25.94,23.869 C26.196,23.887 26.419,23.963 26.438,24.038 L26.589,24.702 L26.917,26.05 L27.277,27.421 L27.647,28.809 L27.971,30.203 L27.978,30.237 C29.75,30.47 31.753,31.255 33.279,32.225 L33.812,31.549 L34.6,30.529 L35.122,29.852 L35.64,29.181 L36.154,28.521 L36.664,27.874 L37.171,27.245 L37.673,26.637 L38.162,26.065 L38.392,25.806 C38.547,25.624 38.707,25.497 38.845,25.433 L38.845,25.397 C38.845,25.374 38.881,25.377 38.935,25.4 C39.058,25.368 39.154,25.397 39.201,25.498 C39.215,25.53 39.224,25.566 39.228,25.608 C39.248,25.631 39.26,25.651 39.26,25.664 L39.265,26.167 L39.288,27.167 L39.328,28.16 L39.385,29.147 L39.455,30.129 L39.507,30.754 L39.794,30.385 L40.194,29.82 L40.566,29.239 L40.907,28.642 L41.214,28.034 L41.484,27.417 L41.713,26.795 L41.899,26.171 L42.038,25.548 L42.11,25.084 L42.141,24.778 L42.16,24.474 L42.164,24.172 L42.155,23.874 L42.132,23.579 L42.093,23.287 L42.04,23 L41.972,22.718 L41.889,22.439 L41.789,22.167 L41.674,21.899 L41.542,21.638 L41.393,21.382 L41.227,21.134 L41.043,20.892 L40.842,20.658 L40.622,20.432 L40.385,20.214 L40.128,20.004 L39.852,19.803 L39.557,19.611 L39.243,19.429 L38.908,19.256 L38.553,19.094 L38.177,18.942 L37.781,18.801 L37.364,18.671 L36.925,18.552 L36.464,18.446 L36.225,18.397 L35.888,18.335 L35.214,18.233 L34.54,18.159 L33.868,18.113 L33.196,18.093 L32.526,18.099 L31.857,18.128 L31.19,18.18 L30.523,18.254 L29.858,18.35 L29.193,18.466 L28.528,18.601 L27.865,18.753 L27.202,18.923 L26.21,19.206 L24.888,19.633 L23.567,20.108 L22.254,20.615 L21.909,20.757 L21.995,21.05 L22.356,22.306 L22.702,23.568 L23.035,24.832 L23.35,26.099 L23.648,27.369 L23.926,28.64 L23.965,28.832 L24.367,27.616 L24.692,26.576 L24.999,25.534 L25.286,24.488 L25.421,23.964 C25.429,23.933 25.486,23.912 25.569,23.903 z M25.83,25.111 L25.685,25.614 L25.363,26.656 L25.025,27.695 L24.497,29.251 L24.209,30.055 L24.337,30.753 C24.881,30.543 25.393,30.389 25.795,30.293 C26.149,30.208 26.538,30.168 26.95,30.167 L26.942,30.126 L26.658,28.736 L26.379,27.356 L26.063,25.988 z M14.481,23.585 L14.737,23.473 L16.734,22.569 L19.396,21.351 L20.509,20.856 L19.982,19.096 L19.206,16.61 L18.996,15.959 L18.539,16.027 L17.342,16.204 L17.307,16.295 L16.629,18.03 L15.945,19.786 L15.259,21.558 z M36.225,18.397 L36.225,18.397 L36.225,18.397 z M42.13,17.42 L42.13,17.42 L42.129,17.42 z M17.975,14.583 L17.544,15.687 L18.841,15.476 L18.415,14.15 L18.291,13.771 z" fill="#20BE86" id="Layer_1"/>
  </g>
</svg>
