<?xml version="1.0" encoding="UTF-8" standalone="no"?><!DOCTYPE svg PUBLIC "-//W3C//DTD SVG 1.1//EN" "http://www.w3.org/Graphics/SVG/1.1/DTD/svg11.dtd"><svg width="100%" height="100%" viewBox="0 0 53 52" version="1.1" xmlns="http://www.w3.org/2000/svg" xmlns:xlink="http://www.w3.org/1999/xlink" xml:space="preserve" xmlns:serif="http://www.serif.com/" style="fill-rule:evenodd;clip-rule:evenodd;stroke-linejoin:round;stroke-miterlimit:2;"><g><path d="M30.14,12.13l12.86,7.87l-1,2l-6.65,-3.08c1.51,4.578 0.352,9.635 -3,13.1l1.65,9.3c0.07,0.38 -0.2,0.68 -0.57,0.68l-0.74,0c-0.393,-0.014 -0.728,-0.296 -0.81,-0.68l-1.36,-7.71c-1.919,1.362 -4.174,2.175 -6.52,2.35l0,5.34c0,0.384 -0.316,0.7 -0.7,0.7l-0.6,0c-0.384,0 -0.7,-0.316 -0.7,-0.7l0,-5.34c-2.34,-0.179 -4.587,-0.991 -6.5,-2.35l-1.37,7.71c-0.082,0.384 -0.417,0.666 -0.81,0.68l-0.73,0c-0.011,0.001 -0.022,0.001 -0.033,0.001c-0.307,0 -0.56,-0.253 -0.56,-0.56c0,-0.041 0.004,-0.081 0.013,-0.121l1.64,-9.29c-2.347,-2.424 -3.661,-5.669 -3.661,-9.044c0,-7.131 5.868,-13 13,-13c2.541,0 5.028,0.746 7.151,2.144Zm-7.14,21.87c6.034,0 11,-4.966 11,-11c0,-6.034 -4.966,-11 -11,-11c-6.034,0 -11,4.966 -11,11c0,6.034 4.966,11 11,11Z" style="fill:#05bf85;"/><path d="M23,34c6.034,0 11,-4.966 11,-11c0,-6.034 -22,-0.1 -22,0c0,6.034 4.966,11 11,11Z" style="fill:#05bf85;fill-opacity:0.44;"/></g></svg>