<?xml version="1.0" encoding="UTF-8" standalone="no"?><!DOCTYPE svg PUBLIC "-//W3C//DTD SVG 1.1//EN" "http://www.w3.org/Graphics/SVG/1.1/DTD/svg11.dtd"><svg width="100%" height="100%" viewBox="0 0 53 52" version="1.1" xmlns="http://www.w3.org/2000/svg" xmlns:xlink="http://www.w3.org/1999/xlink" xml:space="preserve" xmlns:serif="http://www.serif.com/" style="fill-rule:evenodd;clip-rule:evenodd;stroke-linejoin:round;stroke-miterlimit:2;"><g><path d="M7.201,10.352l0.039,-0.129l0.142,-0.448l0.151,-0.452l0.158,-0.456l0.164,-0.46l0.171,-0.461l0.175,-0.463l0.179,-0.463l0.274,-0.692l0.004,-0.009l-0.342,0.12l-0.393,0.129l-0.393,0.118l-0.393,0.104l-0.296,0.068l-0.197,0.04l-0.198,0.035l-0.198,0.031l-0.198,0.026l-0.198,0.02l-0.199,0.014l-0.198,0.009l-0.199,0.002l-0.2,-0.004l-0.199,-0.011l-0.2,-0.018l-0.2,-0.025l-0.201,-0.033l-0.2,-0.041l-0.202,-0.048l-0.201,-0.057l-0.202,-0.066l-0.202,-0.075l-0.203,-0.084l-0.101,-0.046c-0.002,-0.001 0.001,-0.008 0.008,-0.015c0.007,-0.008 0.015,-0.013 0.018,-0.012l0.104,0.043l0.207,0.079l0.207,0.07l0.206,0.061l0.206,0.052l0.205,0.044l0.205,0.036l0.204,0.029l0.203,0.02l0.204,0.014l0.203,0.007l0.202,0l0.202,-0.007l0.201,-0.012l0.202,-0.019l0.201,-0.024l0.2,-0.029l0.2,-0.035l0.2,-0.039l0.2,-0.043l0.299,-0.074l0.397,-0.111l0.397,-0.124l0.395,-0.135l0.285,-0.104l0.225,-0.559l0.186,-0.454l0.184,-0.45l0.183,-0.444l0.044,-0.109l-0.121,0.014l-0.459,0.05l-0.34,0.032l-0.225,0.018l-0.223,0.016l-0.221,0.012l-0.22,0.008l-0.217,0.005l-0.215,0l-0.213,-0.004l-0.21,-0.008l-0.207,-0.014l-0.205,-0.019l-0.202,-0.025l-0.199,-0.031l-0.196,-0.036l-0.192,-0.044l-0.189,-0.05l-0.186,-0.058l-0.182,-0.064l-0.178,-0.073l-0.174,-0.081l-0.17,-0.089l-0.167,-0.098l-0.161,-0.107l-0.158,-0.116l-0.153,-0.126l-0.148,-0.135l-0.072,-0.072c-0.002,-0.002 0.003,-0.009 0.01,-0.017c0.007,-0.007 0.015,-0.011 0.017,-0.009l0.074,0.069l0.152,0.132l0.157,0.121l0.161,0.113l0.165,0.103l0.17,0.094l0.173,0.085l0.178,0.077l0.181,0.069l0.185,0.061l0.189,0.054l0.192,0.046l0.195,0.04l0.199,0.033l0.202,0.027l0.204,0.021l0.208,0.016l0.21,0.01l0.213,0.005l0.216,0l0.217,-0.004l0.22,-0.008l0.222,-0.012l0.224,-0.016l0.226,-0.019l0.228,-0.021l0.345,-0.038l0.464,-0.057l0.059,-0.008l0.082,-0.201l0.177,-0.431l0.086,-0.212c0.05,-0.116 0.209,-0.244 0.357,-0.287c0.111,-0.032 0.183,-0.007 0.192,0.056c0.007,0 0.012,0.002 0.014,0.007l0.12,0.313l0.219,0.581l0.111,-0.016l0.477,-0.067l0.478,-0.064l0.478,-0.057l0.477,-0.049l0.475,-0.039l0.353,-0.02l0.235,-0.008l0.234,-0.005l0.232,0l0.229,0.006l0.228,0.011l0.227,0.016l0.225,0.022l0.222,0.028l0.221,0.034l0.219,0.04l0.216,0.048l0.214,0.054l0.211,0.062l0.209,0.07l0.206,0.077l0.203,0.086l0.2,0.095l0.099,0.051l0.063,0.034l0.128,0.077l0.127,0.085l0.127,0.095l0.126,0.102l0.123,0.11l0.121,0.117l0.117,0.122l0.112,0.129l0.107,0.133l0.101,0.138l0.094,0.142l0.086,0.145l0.078,0.147l0.068,0.15l0.059,0.151l0.048,0.152l0.036,0.152l0.024,0.152l0.01,0.151l-0.001,0.113l-0.006,0.075l-0.009,0.074l-0.013,0.074l-0.017,0.073l-0.022,0.073l-0.026,0.073l-0.031,0.073l-0.036,0.073l-0.042,0.073l-0.048,0.074l-0.055,0.076l-0.063,0.076l-0.071,0.078l-0.077,0.076l-0.083,0.072l-0.085,0.068l-0.088,0.063l-0.091,0.059l-0.094,0.054l-0.098,0.052l-0.102,0.048l-0.108,0.046l-0.112,0.043l-0.058,0.021c-0.001,0 -0.001,0 -0.001,0l-0.179,0.06l-0.356,0.11l-0.353,0.102l-0.285,0.08l0.011,0.09l0.064,0.499l0.055,0.496l0.038,0.491l0.024,0.252c0,0.002 -0.002,0.003 -0.006,0.003l0.078,0.09l0.092,0.109l0.094,0.112l0.142,0.173l0.195,0.236l0.199,0.239l0.202,0.235l0.154,0.169l0.104,0.109l0.105,0.105l0.105,0.101l0.053,0.048c0.004,0.004 0.01,0.015 0.014,0.027c0.003,0.011 0.002,0.017 -0.002,0.013l-0.052,-0.045l-0.104,-0.095l-0.103,-0.099l-0.102,-0.103l-0.152,-0.16l-0.2,-0.22l-0.195,-0.222l-0.19,-0.22l-0.14,-0.16l-0.09,-0.103l-0.089,-0.099l-0.088,-0.094l-0.043,-0.045c-0.019,-0.021 -0.045,-0.075 -0.057,-0.121c-0.003,-0.011 -0.005,-0.02 -0.006,-0.027c0,-0.001 0,-0.001 0,-0.002l-0.026,-0.252l-0.076,-0.513l-0.071,-0.504l-0.061,-0.477l-0.278,0.081l-0.249,0.078l-0.162,0.055l-0.16,0.058l-0.157,0.061l-0.153,0.066l-0.15,0.07l-0.035,0.018c-0.193,0.317 -0.523,0.626 -0.642,0.709c-0.424,0.295 -0.284,-0.243 -0.458,-0.425c-0.077,-0.081 -0.322,0.315 -0.477,0.234c-0.354,-0.185 -0.055,-0.401 -0.143,-0.447c-0.144,-0.075 -0.187,0.158 -0.325,0.085c-0.098,-0.051 -0.038,-0.211 -0.132,-0.244c-0.192,-0.067 -0.346,0.483 -0.499,0.563c-0.247,0.129 -0.499,-0.149 -0.64,-0.223c-0.143,-0.074 -0.542,0.257 -0.641,0.276c-0.028,0.006 -0.057,0.011 -0.085,0.017l-0.076,0.214l-0.089,0.272l-0.041,0.137c0,0.002 -0.003,0.003 -0.007,0.005c-0.002,0.002 -0.007,0.005 -0.014,0.006l-0.144,0.036l-0.29,0.068l-0.291,0.064l-0.294,0.06l-0.299,0.055l-0.304,0.05l-0.454,0.069l-0.302,0.042c-0.012,0.002 -0.032,0.001 -0.043,-0.004c-0.012,-0.004 -0.011,-0.008 0.001,-0.01l0.29,-0.047l0.43,-0.076l0.283,-0.056l0.287,-0.057l0.29,-0.06l0.29,-0.063l0.29,-0.067l0.144,-0.035c0.014,-0.004 0.033,-0.004 0.053,-0.003l0.035,-0.123l0.084,-0.272l0.06,-0.185c-0.46,0.081 -0.925,0.13 -1.08,0.049l0,-0.008c0.188,-0.157 0.155,-0.169 0.707,-0.407c0.228,-0.099 0.236,-0.664 0.355,-0.914c0.107,-0.222 0.375,-0.404 0.669,-0.54l-0.009,-0.047l-0.074,-0.331l-0.08,-0.331l-0.086,-0.33l-0.092,-0.329l-0.096,-0.329l-0.1,-0.328l-0.105,-0.327l-0.081,-0.246l-0.493,0.186l-0.781,0.303l-0.586,0.225l-0.019,0.007l-0.019,0.043l-0.301,0.699l-0.197,0.466l-0.194,0.467l-0.188,0.465l-0.183,0.463l-0.176,0.46l-0.168,0.456l-0.159,0.451l-0.077,0.225c-0.012,0.038 -0.056,0.083 -0.106,0.112c-0.047,0.049 -0.101,0.094 -0.15,0.121l-0.07,0.036l-0.133,0.063l-0.132,0.058l-0.134,0.052l-0.201,0.071l-0.267,0.084l-0.266,0.076l-0.263,0.074l-0.258,0.074l-0.188,0.059l-0.122,0.042l-0.061,0.022c-0.019,0.008 -0.022,-0.004 -0.008,-0.026c0.015,-0.023 0.042,-0.047 0.061,-0.055l0.065,-0.03l0.135,-0.058l0.207,-0.084l0.283,-0.108l0.289,-0.107l0.288,-0.11l0.285,-0.115l0.208,-0.093l0.134,-0.064l0.13,-0.068l0.057,-0.032Zm9.242,-2.278l-0.026,0.027l-0.165,0.154l-0.171,0.146l-0.176,0.138l-0.179,0.128l-0.183,0.118l-0.185,0.108l-0.031,0.016c-0.005,0.09 -0.038,0.188 -0.088,0.287l0.057,-0.029l0.156,-0.074l0.158,-0.069l0.16,-0.065l0.164,-0.06l0.166,-0.058l0.253,-0.081l0.163,-0.049l-0.05,-0.425l-0.023,-0.212Zm-0.085,-1.275c-0.008,0.009 -0.016,0.018 -0.025,0.027l-0.067,0.07l-0.128,0.139l-0.131,0.147l-0.134,0.154l-0.138,0.162l-0.142,0.169l-0.145,0.174l-0.148,0.178l-0.228,0.273l-0.116,0.135c0.114,0.078 0.211,0.158 0.288,0.238c0.048,0.051 0.074,0.111 0.082,0.177c0.002,-0.002 0.004,-0.003 0.006,-0.004l0.088,-0.048l0.176,-0.103l0.17,-0.111l0.164,-0.118l0.156,-0.123l0.149,-0.128l0.141,-0.132l0.061,-0.062l-0.011,-0.103l-0.022,-0.253l-0.019,-0.253l-0.015,-0.254l-0.01,-0.257l-0.002,-0.094Zm0.282,1.874l0.056,-0.016l0.35,-0.102l0.354,-0.105l0.357,-0.113l0.179,-0.061l0.056,-0.02l0.108,-0.043l0.102,-0.044l0.095,-0.045l0.088,-0.047l0.081,-0.047l0.074,-0.047l0.065,-0.047l0.058,-0.045l0.05,-0.043l0.046,-0.043l0.042,-0.045l0.04,-0.049l0.039,-0.052l0.037,-0.056l0.034,-0.06l0.03,-0.062l0.028,-0.065l0.023,-0.066l0.02,-0.068l0.016,-0.069l0.012,-0.071l0.008,-0.071l0.005,-0.072l0.001,-0.109l-0.012,-0.148l-0.024,-0.149l-0.037,-0.149l-0.049,-0.15l-0.059,-0.149l-0.069,-0.147l-0.079,-0.146l-0.087,-0.143l-0.095,-0.14l-0.101,-0.136l-0.107,-0.132l-0.113,-0.127l-0.117,-0.121l-0.121,-0.116l-0.124,-0.108l-0.126,-0.101l-0.127,-0.093l-0.128,-0.084l-0.128,-0.076l-0.063,-0.034l-0.099,-0.05l-0.2,-0.093l-0.203,-0.085l-0.206,-0.076l-0.209,-0.069l-0.211,-0.061l-0.214,-0.053l-0.216,-0.047l-0.218,-0.04l-0.22,-0.033l-0.223,-0.027l-0.224,-0.021l-0.226,-0.016l-0.227,-0.011l-0.229,-0.005l-0.23,-0.002l-0.23,0.002l-0.231,0.005l-0.349,0.016l-0.469,0.033l-0.47,0.042l-0.472,0.052l-0.472,0.057l-0.404,0.052l0.206,0.562l0.17,0.483l0.045,0.131l0.283,-0.104l0.396,-0.137l0.394,-0.125l0.395,-0.111l0.297,-0.073l0.198,-0.044l0.198,-0.039l0.198,-0.034l0.198,-0.03l0.198,-0.024l0.199,-0.019l0.198,-0.013l0.199,-0.007l0.199,0l0.199,0.007l0.2,0.013l0.199,0.021l0.2,0.027l0.1,0.017l0.071,0.013l0.136,0.029l0.13,0.032l0.124,0.034l0.117,0.038l0.112,0.041l0.105,0.043l0.099,0.046l0.093,0.048l0.087,0.051l0.082,0.053l0.076,0.056l0.07,0.058l0.065,0.06l0.059,0.062l0.055,0.063l0.049,0.066l0.044,0.068l0.039,0.069l0.034,0.071l0.029,0.072l0.025,0.074l0.019,0.075l0.016,0.076l0.01,0.078l0.007,0.079l0.002,0.079l-0.002,0.081l-0.007,0.081l-0.01,0.083l-0.023,0.124l-0.044,0.168l-0.059,0.169l-0.073,0.171l-0.087,0.172l-0.1,0.171l-0.113,0.172l-0.125,0.17l-0.136,0.168l-0.147,0.165l-0.017,0.016l0.003,0.026l0.041,0.378l0.039,0.312Zm1.296,-0.397l0,0l0.001,0l-0.001,0Zm-5.515,-2.157c0.022,-0.008 0.062,-0.012 0.11,-0.009c0.076,0.005 0.142,0.025 0.148,0.044l0.044,0.172l0.098,0.349l0.106,0.355l0.11,0.359l0.096,0.361l0.002,0.008c0.525,0.061 1.118,0.264 1.57,0.515l0.158,-0.175l0.234,-0.264l0.155,-0.175l0.153,-0.174l0.152,-0.171l0.152,-0.167l0.15,-0.163l0.148,-0.157l0.145,-0.148l0.068,-0.068c0.046,-0.046 0.094,-0.079 0.135,-0.096l0,-0.009c0,-0.006 0.01,-0.005 0.026,0.001c0.037,-0.009 0.065,-0.001 0.079,0.025c0.004,0.008 0.007,0.018 0.008,0.028c0.006,0.006 0.01,0.012 0.01,0.015l0.001,0.13l0.007,0.259l0.012,0.257l0.017,0.255l0.02,0.254l0.016,0.162l0.085,-0.095l0.118,-0.146l0.111,-0.151l0.101,-0.154l0.091,-0.158l0.08,-0.16l0.068,-0.16l0.055,-0.162l0.041,-0.161l0.021,-0.12l0.009,-0.079l0.006,-0.079l0.001,-0.078l-0.003,-0.077l-0.007,-0.077l-0.011,-0.075l-0.016,-0.075l-0.02,-0.073l-0.024,-0.072l-0.03,-0.07l-0.034,-0.07l-0.039,-0.067l-0.044,-0.066l-0.05,-0.065l-0.054,-0.062l-0.06,-0.061l-0.065,-0.058l-0.07,-0.057l-0.076,-0.054l-0.082,-0.052l-0.087,-0.05l-0.094,-0.047l-0.099,-0.045l-0.105,-0.042l-0.111,-0.039l-0.118,-0.036l-0.123,-0.034l-0.13,-0.031l-0.137,-0.027l-0.071,-0.013l-0.099,-0.016l-0.2,-0.026l-0.2,-0.019l-0.199,-0.012l-0.199,-0.006l-0.199,0.002l-0.198,0.007l-0.197,0.014l-0.198,0.019l-0.197,0.025l-0.197,0.03l-0.197,0.035l-0.197,0.039l-0.196,0.044l-0.294,0.074l-0.392,0.11l-0.391,0.123l-0.389,0.131l-0.103,0.037l0.026,0.076l0.107,0.325l0.103,0.326l0.098,0.328l0.094,0.328l0.088,0.328l0.082,0.329l0.012,0.05l0.119,-0.315l0.096,-0.269l0.091,-0.27l0.085,-0.27l0.04,-0.136c0.003,-0.008 0.019,-0.014 0.044,-0.016Zm0.077,0.313l-0.043,0.13l-0.095,0.27l-0.1,0.269l-0.157,0.402l-0.085,0.208l0.038,0.181c0.161,-0.054 0.313,-0.094 0.432,-0.119c0.105,-0.022 0.22,-0.032 0.342,-0.033l-0.002,-0.01l-0.084,-0.36l-0.083,-0.357l-0.094,-0.354l-0.069,-0.227Zm-3.362,-0.395l0.075,-0.029l0.592,-0.234l0.789,-0.315l0.33,-0.128l-0.157,-0.456l-0.229,-0.643l-0.062,-0.169l-0.136,0.018l-0.355,0.045l-0.01,0.024l-0.201,0.449l-0.203,0.455l-0.203,0.458l-0.23,0.525Zm6.442,-1.343l0,0l0,0l0,0Zm1.75,-0.253l0,0l0,0l0,0Zm-7.157,-0.734l-0.128,0.286l0.385,-0.055l-0.127,-0.343l-0.036,-0.098l-0.094,0.21Z" style="fill:#727271;fill-rule:nonzero;"/></g></svg>